<svg width="231" height="60" viewBox="0 0 231 60" fill="none" xmlns="http://www.w3.org/2000/svg">
<g clip-path="url(#clip0_96_2471)">
<path d="M49.3178 1.98559V1.40137H38.3328V1.98559H43.3755L30.5493 43.5606L15.3584 1.98559H20.3592V1.40137H0V1.98559H5.35779L26.3853 59.4536L44.4626 1.98559H49.3178Z" fill="white"/>
<path d="M68.1467 0.16748C60.864 0.16748 54.3153 4.20376 49.9628 9.85C45.5484 15.6009 43.4141 22.858 43.4141 30.0733C43.4141 37.2885 45.7379 45.1737 50.5073 51.0473C54.6932 56.2159 61.1582 59.9991 67.9163 59.9991C75.1343 59.9991 81.6421 55.8981 85.9518 50.2956C90.3461 44.5447 92.5014 37.2876 92.5014 30.0952C92.5014 22.9027 90.1367 14.9739 85.3872 9.09736C81.2661 3.99634 74.843 0.16748 68.1467 0.16748ZM67.9592 59.1418C56.7019 59.1418 53.7517 38.3961 53.7517 30.0733C53.7517 21.7505 56.6819 1.02479 67.9592 1.02479C79.2364 1.02479 82.1657 21.7705 82.1657 30.0742C82.1657 38.378 79.1945 59.1418 67.9592 59.1427V59.1418Z" fill="white"/>
<path d="M230.54 36.6603C230.437 38.7517 230.267 40.8641 229.913 42.9345C229.265 46.6368 227.401 50.0661 224.724 52.7008C221.584 55.7951 217.171 57.719 212.734 57.719H204.177V29.445C205.202 29.3613 206.206 29.2985 207.23 29.2985C213.738 29.2985 216.185 35.2378 217.085 40.7794H217.609V17.5874H217.085C216.772 23.6951 214.91 28.6296 207.734 28.6296C206.54 28.6296 205.346 28.5459 204.176 28.4212V1.98557H209.887C215.18 1.98557 220.329 2.40423 224.115 6.69076C227.86 10.9364 228.907 16.5198 229.514 21.9577H229.912V1.40039H177.205V1.98557H183.607V45.9051C183.607 52.7864 177.936 57.4697 171.199 57.4697C164.945 57.4697 157.79 53.2441 157.79 46.3029V1.98652H163.208V1.40134H142.789V1.98461H148.373V44.2704C148.373 54.7703 158.503 59.2233 167.688 59.2233C175.805 59.2233 184.468 55.1871 184.468 46.0707V1.98557H194.596V57.719H189.804V58.3051H231.002V36.6603H230.541H230.54Z" fill="white"/>
<path d="M126.129 35.2171H131.359V50.6534C131.359 51.6772 131.318 52.6801 130.773 53.5792C128.661 57.0313 124.433 59.039 120.458 59.039C115.456 59.039 112.758 56.6773 110.895 51.8665C108.238 45.0071 107.653 37.4588 107.653 30.138C107.653 21.9607 108.741 0.525231 120.709 0.525231C125.919 0.525231 129.916 5.08294 132.426 9.14016C134.538 12.6112 135.752 16.4382 136.61 20.3698H137.07V0.397729H136.613C135.212 1.44343 133.579 2.63472 131.758 2.63472C130.295 2.63472 128.81 2.15421 127.45 1.65276L126.256 1.19224C124.623 0.543309 122.888 0 121.129 0C116.631 0 112.405 1.98579 108.911 4.68426C101.127 10.6854 97.4648 20.954 97.4648 30.5547C97.4648 43.6864 105.374 59.5176 120.229 59.5176C123.471 59.5176 126.277 58.5784 129.206 57.2815L130.504 56.5708C131.945 55.7763 133.556 55.1901 135.21 55.1901C137.489 55.1901 139.269 56.4242 140.4 58.3063H140.795V35.2181H145.273V34.6129H126.127V35.2181L126.129 35.2171Z" fill="white"/>
</g>
<defs>
<clipPath id="clip0_96_2471">
<rect width="231" height="60" fill="white"/>
</clipPath>
</defs>
</svg>
