<svg width="350" height="91" viewBox="0 0 350 91" fill="none" xmlns="http://www.w3.org/2000/svg">
<g clip-path="url(#clip0_30_52)">
<path d="M74.7239 3.01181V2.12573H58.08V3.01181H65.7204L46.2868 66.0673L23.2703 3.01181H30.8473V2.12573H0V3.01181H8.11787L39.9777 90.1717L67.3676 3.01181H74.7239Z" fill="black"/>
<path d="M103.255 0.253906C92.2203 0.253906 82.298 6.3756 75.7033 14.9391C69.0149 23.6612 65.781 34.6679 65.781 45.611C65.781 56.5542 69.3019 68.5133 76.5284 77.4216C82.8706 85.2606 92.666 90.9985 102.906 90.9985C113.842 90.9985 123.702 84.7786 130.232 76.2816C136.89 67.5594 140.156 56.5527 140.156 45.6442C140.156 34.7357 136.573 22.7102 129.377 13.7975C123.133 6.061 113.401 0.253906 103.255 0.253906ZM102.971 89.6982C85.9141 89.6982 81.4441 58.234 81.4441 45.611C81.4441 32.9881 85.8838 1.55415 102.971 1.55415C120.057 1.55415 124.496 33.0184 124.496 45.6125C124.496 58.2066 119.994 89.6982 102.971 89.6997V89.6982Z" fill="black"/>
<path d="M349.302 55.6018C349.145 58.7738 348.888 61.9775 348.351 65.1177C347.369 70.7329 344.545 75.9339 340.489 79.9299C335.732 84.6229 329.045 87.5408 322.322 87.5408H309.357V44.6587C310.911 44.5317 312.431 44.4364 313.983 44.4364C323.843 44.4364 327.552 53.4443 328.915 61.8491H329.708V26.6746H328.915C328.44 35.9379 325.619 43.4219 314.746 43.4219C312.937 43.4219 311.129 43.2949 309.356 43.1059V3.01178H318.009C326.029 3.01178 333.831 3.64675 339.566 10.148C345.24 16.5872 346.827 25.0554 347.747 33.3028H348.35V2.12427H268.491V3.01178H278.19V69.6231C278.19 80.0597 269.599 87.1628 259.391 87.1628C249.914 87.1628 239.073 80.7539 239.073 70.2263V3.01323H247.283V2.12571H216.345V3.01034H224.806V67.1438C224.806 83.0686 240.154 89.8224 254.071 89.8224C266.369 89.8224 279.495 83.7007 279.495 69.8742V3.01178H294.841V87.5408H287.58V88.4298H350.002V55.6018H349.303H349.302Z" fill="black"/>
<path d="M191.106 53.4126H199.03V76.8243C199.03 78.3771 198.967 79.8981 198.142 81.2618C194.941 86.4975 188.536 89.5424 182.513 89.5424C174.935 89.5424 170.846 85.9606 168.025 78.6642C163.999 68.2608 163.112 56.8126 163.112 45.7092C163.112 33.3071 164.76 0.7966 182.893 0.7966C190.787 0.7966 196.844 7.70912 200.646 13.8626C203.847 19.1271 205.686 24.9313 206.985 30.8942H207.683V0.603222H206.991C204.868 2.18921 202.394 3.99599 199.635 3.99599C197.418 3.99599 195.168 3.26721 193.107 2.50669L191.298 1.80822C188.824 0.824019 186.195 0 183.53 0C176.715 0 170.312 3.01178 165.017 7.10446C153.224 16.2062 147.675 31.7803 147.675 46.3413C147.675 66.2578 159.659 90.2683 182.166 90.2683C187.079 90.2683 191.329 88.844 195.768 86.877L197.734 85.799C199.918 84.594 202.358 83.705 204.865 83.705C208.318 83.705 211.014 85.5768 212.728 88.4313H213.326V53.414H220.111V52.4962H191.103V53.414L191.106 53.4126Z" fill="black"/>
</g>
<defs>
<clipPath id="clip0_30_52">
<rect width="350" height="91" fill="white"/>
</clipPath>
</defs>
</svg>
