<svg width="677" height="90" viewBox="0 0 677 90" fill="none" xmlns="http://www.w3.org/2000/svg">
<path d="M653.769 11.0502H633.507V5.68822H653.769V11.0502ZM645.984 28.3218H639.436V16.5152H645.984V28.3218ZM657.662 8.93632C657.645 11.3595 657.576 13.5936 657.456 15.6387C657.335 17.6838 657.052 19.9266 656.605 22.367L650.109 21.7998C650.573 19.3423 650.865 17.1941 650.985 15.3552C651.123 13.5163 651.209 11.4025 651.243 9.01365V8.60119V5.68822H657.662V8.60119V8.93632ZM669.133 37.3701H662.379V2.23389H669.133V37.3701ZM674.83 22.0834H666.478V16.5926H674.83V22.0834ZM670.603 48.4033H637.632V43.0929H670.603V48.4033ZM644.231 44.7685H637.632V34.2509H644.231V44.7685ZM630.723 25.7955C636.343 25.7955 641.542 25.701 646.319 25.5119C651.114 25.3229 655.634 24.919 659.879 24.3003L660.188 29.0436C655.84 29.8513 651.277 30.3841 646.5 30.6419C641.722 30.8997 636.652 31.0286 631.29 31.0286L630.723 25.7955Z" fill="white"/>
<path d="M609.326 3.52255C609.309 6.13478 608.527 8.51501 606.98 10.6632C605.434 12.7942 603.208 14.573 600.304 15.9994C597.399 17.4086 593.979 18.3366 590.044 18.7835L587.827 13.8598C591.212 13.4989 594.1 12.7942 596.488 11.7459C598.894 10.6976 600.699 9.46881 601.902 8.05958C603.122 6.63317 603.732 5.12083 603.732 3.52255V2.54297H609.326V3.52255ZM610.512 3.52255C610.512 5.12083 611.114 6.63317 612.317 8.05958C613.537 9.46881 615.341 10.6976 617.73 11.7459C620.136 12.7771 623.023 13.4817 626.392 13.8598L624.201 18.7835C620.213 18.3538 616.768 17.4258 613.863 15.9994C610.959 14.573 608.725 12.7942 607.161 10.6632C605.614 8.51501 604.841 6.13478 604.841 3.52255V2.54297H610.512V3.52255ZM610.332 31.2861H603.732V24.7125H610.332V31.2861ZM628.531 25.8984H585.739V20.7169H628.531V25.8984ZM623.298 41.1335H597.159V45.2581H590.688V36.4934H616.802V33.9671H590.662V28.9918H623.298V41.1335ZM624.536 48.8671H590.688V43.9434H624.536V48.8671Z" fill="white"/>
<path d="M565.116 38.0146H542.431V6.53891H565.116V38.0146ZM548.978 32.8073H558.697V11.6688H548.978V32.8073ZM579.371 49.3313H572.695V2.23389H579.371V49.3313Z" fill="white"/>
<path d="M533.718 36.5966H527.145V2.33691H533.718V36.5966ZM535.007 48.4032H502.294V43.0928H535.007V48.4032ZM508.945 45.9027H502.294V33.2454H508.945V45.9027ZM511.085 9.42602C511.067 12.5882 510.56 15.5527 509.564 18.3196C508.584 21.0693 507.089 23.4839 505.078 25.5634C503.085 27.6429 500.618 29.181 497.68 30.1778L494.277 24.9963C496.82 24.137 498.934 22.8996 500.618 21.2842C502.32 19.6687 503.574 17.847 504.382 15.8191C505.19 13.7912 505.602 11.6602 505.619 9.42602V4.91477H511.085V9.42602ZM512.451 9.42602C512.434 11.5742 512.812 13.6193 513.585 15.5613C514.358 17.4861 515.57 19.2047 517.22 20.717C518.87 22.2294 520.941 23.3808 523.433 24.1714L520.081 29.3786C517.194 28.3991 514.771 26.9383 512.812 24.9963C510.853 23.0371 509.383 20.7342 508.404 18.0876C507.424 15.4238 506.934 12.5366 506.934 9.42602V4.91477H512.451V9.42602Z" fill="white"/>
<path d="M491.698 30.7191H448.802V25.4603H491.698V30.7191ZM474.065 38.8136H467.569V28.76H474.065V38.8136ZM486.233 21.6193H454.138V4.34766H486.233V21.6193ZM460.583 16.4894H479.762V9.42604H460.583V16.4894ZM486.98 48.4032H453.803V43.0929H486.98V48.4032ZM460.403 44.8458H453.803V34.7148H460.403V44.8458Z" fill="white"/>
<path d="M419.363 10.2761C419.363 13.4555 418.865 16.3942 417.868 19.0924C416.889 21.7906 415.402 24.145 413.408 26.1557C411.432 28.1665 408.992 29.6616 406.087 30.6412L402.427 25.4597C405.005 24.652 407.144 23.4662 408.846 21.9023C410.564 20.3384 411.827 18.5682 412.635 16.5919C413.46 14.5983 413.872 12.4931 413.872 10.2761V5.17197H419.363V10.2761ZM420.498 10.3277C420.498 12.4072 420.893 14.3749 421.683 16.231C422.491 18.087 423.711 19.7541 425.344 21.232C426.994 22.6928 429.048 23.8185 431.505 24.609L428.051 29.7647C425.215 28.8195 422.843 27.3845 420.936 25.4597C419.028 23.5349 417.593 21.2922 416.631 18.7315C415.686 16.1536 415.213 13.3524 415.213 10.3277V5.17197H420.498V10.3277ZM440.425 36.6734H433.851V2.31055H440.425V36.6734ZM446.766 21.4125H438.517V15.8959H446.766V21.4125ZM442.177 48.4026H409.98V43.0923H442.177V48.4026ZM416.682 45.9021H409.98V33.2706H416.682V45.9021Z" fill="white"/>
<path d="M381.598 37.731H359.067V6.71936H381.598V37.731ZM365.538 32.5495H375.076V11.8493H365.538V32.5495ZM394.59 49.2024H387.991V2.23389H394.59V49.2024ZM401.551 25.4604H393.147V19.9695H401.551V25.4604Z" fill="white"/>
<path d="M351.205 28.4764H344.632V2.33691H351.205V28.4764ZM318.544 22.2895C322.187 22.2723 325.126 22.238 327.36 22.1864C329.611 22.1349 331.82 22.0232 333.985 21.8513C336.151 21.6623 338.342 21.3787 340.559 21.0006L341.358 26.2852C337.99 26.8523 334.63 27.2218 331.278 27.3937C327.927 27.5655 323.682 27.6601 318.544 27.6773H314.419V22.2895H318.544ZM336.099 18.3712H320.89V25.8212H314.419V13.3959H329.603V9.68381H314.368V4.3992H336.099V18.3712ZM326.355 34.4828H344.658V30.4098H351.205V48.6868H319.833V30.4098H326.355V34.4828ZM344.658 43.4022V39.5354H326.355V43.4022H344.658Z" fill="white"/>
<path d="M283.329 12.8804C283.329 17.005 282.822 20.846 281.808 24.4035C280.812 27.9609 279.291 31.0973 277.246 33.8126C275.218 36.5108 272.7 38.5559 269.692 39.9479L265.697 34.4571C268.343 33.34 270.586 31.6816 272.425 29.4818C274.264 27.2649 275.63 24.7386 276.524 21.9029C277.435 19.0501 277.899 16.0426 277.916 12.8804V5.86867H283.329V12.8804ZM284.593 12.8804C284.575 15.8708 285.014 18.7236 285.907 21.4389C286.801 24.1371 288.133 26.5517 289.903 28.6827C291.69 30.8137 293.873 32.4206 296.451 33.5033L292.584 38.7879C289.645 37.4474 287.17 35.4883 285.16 32.9104C283.166 30.3154 281.662 27.3164 280.648 23.9137C279.652 20.4937 279.162 16.816 279.179 12.8804V5.86867H284.593V12.8804ZM305.602 49.3313H298.925V2.23389H305.602V49.3313Z" fill="white"/>
<path d="M239.687 36.6482H233.062V26.2852H239.687V36.6482ZM260.439 37.7825H253.84V2.33691H260.439V37.7825ZM261.47 48.4032H226.463V43.0928H261.47V48.4032ZM233.088 44.5107H226.463V34.3797H233.088V44.5107ZM220.508 23.1402C226.763 23.0887 232.263 22.977 237.006 22.8051C241.749 22.6161 246.304 22.2466 250.669 21.6966L251.004 26.4141C246.467 27.1703 241.715 27.6858 236.748 27.9608C231.799 28.2186 226.643 28.3389 221.281 28.3217L220.508 23.1402ZM255.335 34.0446H244.869V29.5591H255.335V34.0446ZM235.769 3.90941C238.02 3.90941 240.039 4.26171 241.827 4.96633C243.614 5.67094 245.006 6.66771 246.003 7.95664C247 9.22839 247.498 10.6806 247.498 12.3132C247.498 13.9802 247 15.4324 246.003 16.6698C245.006 17.9072 243.614 18.8782 241.827 19.5828C240.057 20.2702 238.037 20.6139 235.769 20.6139C233.466 20.6139 231.421 20.2702 229.633 19.5828C227.863 18.8782 226.48 17.9072 225.483 16.6698C224.486 15.4324 223.988 13.9802 223.988 12.3132C223.988 10.6806 224.486 9.21979 225.483 7.93086C226.48 6.64194 227.872 5.65376 229.659 4.96633C231.447 4.26171 233.483 3.90941 235.769 3.90941ZM235.769 8.73C234.652 8.73 233.681 8.86749 232.856 9.14246C232.031 9.41743 231.378 9.82989 230.897 10.3798C230.433 10.9126 230.209 11.5571 230.226 12.3132C230.209 13.0694 230.433 13.7139 230.897 14.2466C231.378 14.7794 232.031 15.1832 232.856 15.4582C233.681 15.7332 234.652 15.8707 235.769 15.8707C236.851 15.8707 237.797 15.7332 238.604 15.4582C239.429 15.1832 240.074 14.7794 240.538 14.2466C241.002 13.7139 241.234 13.0694 241.234 12.3132C241.234 11.5742 241.002 10.9298 240.538 10.3798C240.074 9.82989 239.429 9.41743 238.604 9.14246C237.797 8.86749 236.851 8.73 235.769 8.73Z" fill="white"/>
<path d="M191.068 12.2612C191.068 15.0624 190.57 17.6661 189.573 20.0721C188.593 22.4609 187.115 24.5489 185.139 26.3363C183.163 28.1064 180.739 29.4125 177.869 30.2546L174.673 25.0989C177.13 24.4458 179.193 23.4576 180.86 22.1343C182.527 20.7939 183.764 19.2815 184.572 17.5973C185.397 15.9131 185.809 14.1344 185.809 12.2612V10.5598H191.068V12.2612ZM192.331 12.2612C192.331 13.9454 192.727 15.5522 193.517 17.0817C194.325 18.6113 195.545 19.9775 197.178 21.1805C198.827 22.3835 200.881 23.303 203.339 23.9388L200.323 29.1461C197.401 28.3556 194.943 27.1268 192.95 25.4598C190.956 23.7756 189.461 21.8078 188.464 19.5565C187.485 17.288 186.995 14.8562 186.995 12.2612V10.5598H192.331V12.2612ZM201.792 12.4158H176.348V7.23433H201.792V12.4158ZM192.409 9.24506H185.809V2.07861H192.409V9.24506ZM212.284 30.5897H205.71V2.23328H212.284V30.5897ZM218.625 18.7316H210.428V13.4212H218.625V18.7316ZM196.894 31.4404C200.177 31.4576 203.004 31.8185 205.375 32.5231C207.764 33.2105 209.586 34.2245 210.84 35.565C212.095 36.8883 212.722 38.4866 212.722 40.3598C212.722 42.1987 212.086 43.7712 210.815 45.0773C209.543 46.4006 207.721 47.4059 205.349 48.0934C202.978 48.7808 200.159 49.1245 196.894 49.1245C193.577 49.1245 190.716 48.7808 188.31 48.0934C185.904 47.4059 184.048 46.4092 182.742 45.1031C181.453 43.7969 180.808 42.2159 180.808 40.3598C180.808 38.4866 181.453 36.8883 182.742 35.565C184.048 34.2245 185.904 33.2105 188.31 32.5231C190.716 31.8185 193.577 31.4576 196.894 31.4404ZM196.894 36.5446C194.78 36.5446 193.019 36.6735 191.609 36.9312C190.217 37.189 189.169 37.6101 188.464 38.1944C187.76 38.7615 187.416 39.4833 187.433 40.3598C187.416 41.2191 187.76 41.9323 188.464 42.4994C189.186 43.0494 190.243 43.4704 191.635 43.7626C193.044 44.0375 194.797 44.1836 196.894 44.2008C198.939 44.1836 200.649 44.0375 202.024 43.7626C203.416 43.4704 204.464 43.0494 205.169 42.4994C205.891 41.9323 206.252 41.2191 206.252 40.3598C206.252 39.4833 205.899 38.7615 205.195 38.1944C204.49 37.6101 203.442 37.189 202.05 36.9312C200.675 36.6735 198.956 36.5446 196.894 36.5446Z" fill="white"/>
<path d="M658.562 71.4883H660.59V73.5642H660.76C661.037 72.856 661.485 72.3065 662.104 71.9157C662.722 71.5168 663.463 71.3174 664.326 71.3174C664.896 71.3174 665.409 71.4029 665.865 71.5738C666.321 71.7448 666.715 72.0012 667.049 72.3431C667.383 72.6769 667.656 73.0839 667.867 73.5642H668.014C668.242 73.1083 668.547 72.7094 668.93 72.3675C669.312 72.0256 669.76 71.7651 670.273 71.586C670.794 71.4069 671.368 71.3174 671.995 71.3174C672.8 71.3174 673.505 71.4843 674.107 71.818C674.718 72.1518 675.194 72.6606 675.536 73.3444C675.878 74.0282 676.049 74.8748 676.049 75.8843V84.7494H673.948V75.9087C673.94 74.9888 673.688 74.3091 673.191 73.8695C672.695 73.4217 672.052 73.1979 671.262 73.1979C670.659 73.1979 670.143 73.324 669.711 73.5764C669.28 73.8288 668.946 74.1747 668.71 74.6143C668.482 75.0539 668.364 75.5586 668.356 76.1285V84.7494H666.231V75.6889C666.231 75.2005 666.125 74.7649 665.913 74.3823C665.702 73.9997 665.397 73.7067 664.998 73.5031C664.599 73.2996 664.147 73.1979 663.642 73.1979C663.113 73.1979 662.621 73.3363 662.165 73.613C661.717 73.8898 661.355 74.2806 661.078 74.7853C660.801 75.2819 660.663 75.8436 660.663 76.4704V84.7494H658.562V71.4883Z" fill="white"/>
<path d="M653.117 71.4888H655.193V84.7498H653.117V82.503H652.97C652.637 83.2194 652.132 83.8014 651.456 84.2492C650.789 84.6969 649.983 84.9208 649.038 84.9208C648.184 84.9208 647.431 84.7335 646.779 84.3591C646.136 83.9846 645.636 83.4229 645.278 82.674C644.919 81.925 644.74 81.0051 644.74 79.9143V71.4888H646.841V79.7678C646.841 80.3946 646.963 80.9441 647.207 81.4162C647.451 81.8802 647.789 82.2425 648.22 82.503C648.66 82.7635 649.161 82.8938 649.722 82.8938C650.251 82.9019 650.777 82.7716 651.298 82.503C651.827 82.2262 652.262 81.8192 652.604 81.2819C652.946 80.7446 653.117 80.0852 653.117 79.3037V71.4888Z" fill="white"/>
<path d="M636.485 85.018C635.224 85.018 634.125 84.7372 633.188 84.1755C632.26 83.6138 631.544 82.8201 631.039 81.7943C630.535 80.7686 630.282 79.5801 630.282 78.2288C630.282 76.8774 630.535 75.6767 631.039 74.6265C631.544 73.5764 632.248 72.7623 633.152 72.1844C634.055 71.6064 635.101 71.3174 636.29 71.3174C637.291 71.3174 638.223 71.5372 639.086 71.9768C639.957 72.4164 640.662 73.1327 641.199 74.1259C641.736 75.119 642.005 76.389 642.005 77.9357V78.8149H631.748V77.0321H639.88C639.88 76.2994 639.734 75.64 639.44 75.0539C639.147 74.4678 638.728 74.0079 638.183 73.6741C637.637 73.3403 637.006 73.1734 636.29 73.1734C635.509 73.1734 634.825 73.3647 634.239 73.7474C633.652 74.13 633.197 74.6428 632.871 75.2859C632.553 75.929 632.391 76.6169 632.383 77.3496V78.5462C632.383 79.5231 632.558 80.3575 632.908 81.0495C633.258 81.7414 633.738 82.2665 634.348 82.6247C634.959 82.9829 635.671 83.162 636.485 83.162C636.99 83.162 637.446 83.0928 637.853 82.9544C638.26 82.816 638.602 82.6369 638.879 82.4171C639.164 82.1892 639.392 81.9327 639.563 81.6478H641.809C641.598 82.3235 641.248 82.9177 640.759 83.4306C640.271 83.9353 639.66 84.3261 638.928 84.6028C638.195 84.8796 637.381 85.018 636.485 85.018Z" fill="white"/>
<path d="M625.886 74.9318C625.732 74.362 625.43 73.9183 624.983 73.6008C624.543 73.2752 623.949 73.1083 623.2 73.1002C622.663 73.1002 622.182 73.1897 621.759 73.3688C621.336 73.5479 621.002 73.7921 620.758 74.1015C620.514 74.4027 620.391 74.7364 620.391 75.1028C620.4 75.5424 620.587 75.9168 620.953 76.2262C621.319 76.5274 621.889 76.7716 622.663 76.9588L624.641 77.4473C625.821 77.724 626.704 78.1636 627.291 78.766C627.877 79.3603 628.174 80.1174 628.182 81.0373C628.174 81.8106 627.966 82.4985 627.559 83.1009C627.16 83.6952 626.566 84.1633 625.776 84.5052C624.995 84.8471 624.063 85.018 622.98 85.018C621.995 85.018 621.14 84.8756 620.416 84.5906C619.699 84.3057 619.126 83.8865 618.694 83.3329C618.263 82.7712 617.99 82.0874 617.876 81.2815H620.074C620.196 81.9246 620.493 82.4049 620.965 82.7224C621.438 83.0399 622.093 83.1945 622.931 83.1864C623.558 83.1864 624.104 83.105 624.568 82.9422C625.04 82.7794 625.398 82.5473 625.642 82.2461C625.886 81.9368 626.008 81.5745 626.008 81.1594C626.008 80.6872 625.833 80.2965 625.483 79.9871C625.133 79.6778 624.584 79.4336 623.835 79.2545L621.832 78.7905C620.684 78.5218 619.805 78.0822 619.195 77.4717C618.592 76.8611 618.291 76.1122 618.291 75.2249C618.291 74.4759 618.499 73.8043 618.914 73.2101C619.329 72.6158 619.907 72.1518 620.648 71.818C621.389 71.4843 622.239 71.3174 623.2 71.3174C624.095 71.3174 624.885 71.468 625.569 71.7692C626.253 72.0704 626.794 72.4937 627.193 73.0391C627.6 73.5845 627.848 74.2154 627.938 74.9318H625.886Z" fill="white"/>
<path d="M613.065 71.4888H615.141V84.7498H613.065V82.503H612.918C612.584 83.2194 612.08 83.8014 611.404 84.2492C610.736 84.6969 609.931 84.9208 608.986 84.9208C608.131 84.9208 607.378 84.7335 606.727 84.3591C606.084 83.9846 605.583 83.4229 605.225 82.674C604.867 81.925 604.688 81.0051 604.688 79.9143V71.4888H606.788V79.7678C606.788 80.3946 606.91 80.9441 607.155 81.4162C607.399 81.8802 607.737 82.2425 608.168 82.503C608.608 82.7635 609.108 82.8938 609.67 82.8938C610.199 82.9019 610.724 82.7716 611.245 82.503C611.774 82.2262 612.21 81.8192 612.552 81.2819C612.894 80.7446 613.065 80.0852 613.065 79.3037V71.4888Z" fill="white"/>
<path d="M586.274 67.0679L592.233 81.6233H592.453L598.412 67.0679H601.05V84.7493H598.974V71.3905H598.803L593.308 84.7493H591.354L585.859 71.3905H585.713V84.7493H583.637V67.0679H586.274Z" fill="white"/>
<path d="M574.381 73.2462H567.469V71.4878H574.381V73.2462ZM571.597 68.313V80.9391C571.597 81.4682 571.674 81.8793 571.829 82.1724C571.983 82.4573 572.187 82.6527 572.439 82.7585C572.691 82.8643 572.989 82.9172 573.33 82.9172C573.477 82.9172 573.628 82.9132 573.782 82.905C573.945 82.8969 574.104 82.8928 574.259 82.8928L574.576 82.8684V84.8221C574.136 84.8873 573.648 84.9198 573.111 84.9198C572.492 84.9198 571.906 84.7896 571.352 84.5291C570.799 84.2686 570.347 83.8819 569.997 83.369C569.647 82.848 569.472 82.2171 569.472 81.4763V68.313H571.597Z" fill="white"/>
<path d="M559.019 71.4888H561.046V73.5158H561.192C561.428 72.8483 561.86 72.311 562.486 71.904C563.121 71.4888 563.83 71.2772 564.611 71.269C565.271 71.2935 565.637 71.3097 565.71 71.3179V73.4426C565.572 73.41 565.385 73.3775 565.148 73.3449C564.912 73.3123 564.676 73.2961 564.44 73.2961C563.813 73.2961 563.248 73.4304 562.743 73.699C562.246 73.9677 561.851 74.3381 561.558 74.8102C561.265 75.2824 561.119 75.8115 561.119 76.3976V84.7499H559.019V71.4888Z" fill="white"/>
<path d="M541.631 84.7493L548.103 67.0679H550.423L556.895 84.7493H554.575L549.324 69.9252H549.178L543.927 84.7493H541.631ZM553.793 77.8379V79.7672H544.733V77.8379H553.793Z" fill="white"/>
<path d="M524.779 84.7494H522.679V71.4883H524.706V73.5642H524.877C525.202 72.856 525.687 72.3065 526.33 71.9157C526.981 71.5168 527.791 71.3174 528.76 71.3174C529.672 71.3174 530.461 71.5005 531.129 71.8669C531.796 72.2332 532.313 72.7949 532.679 73.552C533.046 74.3009 533.229 75.2249 533.229 76.3239V84.7494H531.129V76.4704C531.129 75.7947 531.011 75.2127 530.775 74.7242C530.538 74.2276 530.193 73.8491 529.737 73.5886C529.289 73.3281 528.752 73.1979 528.125 73.1979C527.474 73.1979 526.896 73.3363 526.391 73.613C525.886 73.8898 525.491 74.3009 525.206 74.8463C524.921 75.3918 524.779 76.0389 524.779 76.7879V84.7494Z" fill="white"/>
<path d="M517.234 71.4889H519.334V84.7499H517.234V71.4889ZM518.284 69.2909C518.015 69.2909 517.767 69.2258 517.539 69.0955C517.319 68.9653 517.144 68.7984 517.014 68.5949C516.883 68.3832 516.818 68.1512 516.818 67.8989C516.818 67.6465 516.883 67.4145 517.014 67.2029C517.144 66.9831 517.319 66.8121 517.539 66.69C517.767 66.5679 518.015 66.5068 518.284 66.5068C518.544 66.5068 518.788 66.5679 519.016 66.69C519.244 66.8121 519.427 66.9831 519.566 67.2029C519.704 67.4145 519.773 67.6465 519.773 67.8989C519.773 68.1512 519.704 68.3832 519.566 68.5949C519.427 68.7984 519.244 68.9653 519.016 69.0955C518.788 69.2258 518.544 69.2909 518.284 69.2909Z" fill="white"/>
<path d="M505.267 84.7493H503.167V67.0679H505.267V73.5641H505.438C505.764 72.8477 506.244 72.2941 506.879 71.9034C507.514 71.5126 508.336 71.3173 509.346 71.3173C510.266 71.3173 511.063 71.5004 511.739 71.8668C512.423 72.2331 512.948 72.7907 513.314 73.5397C513.681 74.2886 513.864 75.2166 513.864 76.3237V84.7493H511.764V76.4703C511.764 75.7783 511.641 75.1881 511.397 74.6997C511.153 74.2031 510.803 73.8286 510.347 73.5763C509.891 73.3239 509.346 73.1977 508.711 73.1977C508.043 73.1977 507.453 73.3361 506.94 73.6129C506.427 73.8897 506.02 74.3008 505.719 74.8462C505.418 75.3916 505.267 76.0388 505.267 76.7878V84.7493Z" fill="white"/>
<path d="M498.136 74.9318C497.982 74.362 497.68 73.9183 497.233 73.6008C496.793 73.2752 496.199 73.1083 495.45 73.1002C494.913 73.1002 494.432 73.1897 494.009 73.3688C493.586 73.5479 493.252 73.7921 493.008 74.1015C492.764 74.4027 492.641 74.7364 492.641 75.1028C492.65 75.5424 492.837 75.9168 493.203 76.2262C493.569 76.5274 494.139 76.7716 494.913 76.9588L496.891 77.4473C498.071 77.724 498.954 78.1636 499.541 78.766C500.127 79.3603 500.424 80.1174 500.432 81.0373C500.424 81.8106 500.216 82.4985 499.809 83.1009C499.41 83.6952 498.816 84.1633 498.026 84.5052C497.245 84.8471 496.313 85.018 495.23 85.018C494.245 85.018 493.39 84.8756 492.666 84.5906C491.949 84.3057 491.376 83.8865 490.944 83.3329C490.513 82.7712 490.24 82.0874 490.126 81.2815H492.324C492.446 81.9246 492.743 82.4049 493.215 82.7224C493.688 83.0399 494.343 83.1945 495.181 83.1864C495.808 83.1864 496.354 83.105 496.818 82.9422C497.29 82.7794 497.648 82.5473 497.892 82.2461C498.136 81.9368 498.258 81.5745 498.258 81.1594C498.258 80.6872 498.083 80.2965 497.733 79.9871C497.383 79.6778 496.834 79.4336 496.085 79.2545L494.082 78.7905C492.934 78.5218 492.055 78.0822 491.445 77.4717C490.842 76.8611 490.541 76.1122 490.541 75.2249C490.541 74.4759 490.749 73.8043 491.164 73.2101C491.579 72.6158 492.157 72.1518 492.898 71.818C493.639 71.4843 494.489 71.3174 495.45 71.3174C496.345 71.3174 497.135 71.468 497.819 71.7692C498.503 72.0704 499.044 72.4937 499.443 73.0391C499.85 73.5845 500.098 74.2154 500.188 74.9318H498.136Z" fill="white"/>
<path d="M478.94 84.7494H476.839V71.4883H478.866V73.5642H479.037C479.363 72.856 479.847 72.3065 480.49 71.9157C481.142 71.5168 481.952 71.3174 482.92 71.3174C483.832 71.3174 484.622 71.5005 485.289 71.8669C485.957 72.2332 486.474 72.7949 486.84 73.552C487.206 74.3009 487.39 75.2249 487.39 76.3239V84.7494H485.289V76.4704C485.289 75.7947 485.171 75.2127 484.935 74.7242C484.699 74.2276 484.353 73.8491 483.897 73.5886C483.45 73.3281 482.912 73.1979 482.285 73.1979C481.634 73.1979 481.056 73.3363 480.551 73.613C480.047 73.8898 479.652 74.3009 479.367 74.8463C479.082 75.3918 478.94 76.0389 478.94 76.7879V84.7494Z" fill="white"/>
<path d="M468.072 85.018C466.875 85.018 465.817 84.7331 464.897 84.1633C463.985 83.5934 463.277 82.7956 462.772 81.7699C462.267 80.7361 462.015 79.5394 462.015 78.1799C462.015 76.8123 462.267 75.6116 462.772 74.5777C463.277 73.5438 463.985 72.742 464.897 72.1721C465.817 71.6023 466.875 71.3174 468.072 71.3174C469.26 71.3174 470.31 71.6023 471.222 72.1721C472.134 72.742 472.838 73.5438 473.335 74.5777C473.831 75.6116 474.08 76.8123 474.08 78.1799C474.08 79.5394 473.831 80.7361 473.335 81.7699C472.838 82.7956 472.134 83.5934 471.222 84.1633C470.31 84.7331 469.26 85.018 468.072 85.018ZM468.072 83.162C468.927 83.162 469.647 82.9381 470.233 82.4904C470.827 82.0426 471.267 81.4402 471.552 80.6831C471.837 79.9261 471.979 79.0917 471.979 78.1799C471.979 77.2682 471.837 76.4338 471.552 75.6767C471.267 74.9196 470.827 74.3131 470.233 73.8573C469.647 73.4014 468.927 73.1734 468.072 73.1734C467.209 73.1734 466.48 73.4014 465.886 73.8573C465.292 74.3131 464.848 74.9196 464.555 75.6767C464.27 76.4338 464.124 77.2682 464.115 78.1799C464.124 79.0917 464.27 79.9261 464.555 80.6831C464.848 81.4402 465.292 82.0426 465.886 82.4904C466.48 82.9381 467.209 83.162 468.072 83.162Z" fill="white"/>
<path d="M453.883 85.018C452.687 85.018 451.628 84.7331 450.708 84.1633C449.797 83.5934 449.088 82.7956 448.584 81.7699C448.079 80.7361 447.827 79.5394 447.827 78.1799C447.827 76.8123 448.079 75.6116 448.584 74.5777C449.088 73.5438 449.797 72.742 450.708 72.1721C451.628 71.6023 452.687 71.3174 453.883 71.3174C455.072 71.3174 456.122 71.6023 457.034 72.1721C457.945 72.742 458.65 73.5438 459.146 74.5777C459.643 75.6116 459.891 76.8123 459.891 78.1799C459.891 79.5394 459.643 80.7361 459.146 81.7699C458.65 82.7956 457.945 83.5934 457.034 84.1633C456.122 84.7331 455.072 85.018 453.883 85.018ZM453.883 83.162C454.738 83.162 455.459 82.9381 456.045 82.4904C456.639 82.0426 457.078 81.4402 457.363 80.6831C457.648 79.9261 457.791 79.0917 457.791 78.1799C457.791 77.2682 457.648 76.4338 457.363 75.6767C457.078 74.9196 456.639 74.3131 456.045 73.8573C455.459 73.4014 454.738 73.1734 453.883 73.1734C453.02 73.1734 452.292 73.4014 451.698 73.8573C451.103 74.3131 450.66 74.9196 450.367 75.6767C450.082 76.4338 449.935 77.2682 449.927 78.1799C449.935 79.0917 450.082 79.9261 450.367 80.6831C450.66 81.4402 451.103 82.0426 451.698 82.4904C452.292 82.9381 453.02 83.162 453.883 83.162Z" fill="white"/>
<path d="M430.047 67.0679L436.006 81.6233H436.226L442.185 67.0679H444.822V84.7493H442.747V71.3905H442.576L437.081 84.7493H435.127L429.632 71.3905H429.486V84.7493H427.41V67.0679H430.047Z" fill="white"/>
<path d="M409.045 84.7494H406.944V71.4883H408.971V73.5642H409.142C409.468 72.856 409.952 72.3065 410.595 71.9157C411.247 71.5168 412.057 71.3174 413.025 71.3174C413.937 71.3174 414.727 71.5005 415.394 71.8669C416.062 72.2332 416.579 72.7949 416.945 73.552C417.311 74.3009 417.495 75.2249 417.495 76.3239V84.7494H415.394V76.4704C415.394 75.7947 415.276 75.2127 415.04 74.7242C414.804 74.2276 414.458 73.8491 414.002 73.5886C413.555 73.3281 413.017 73.1979 412.39 73.1979C411.739 73.1979 411.161 73.3363 410.656 73.613C410.152 73.8898 409.757 74.3009 409.472 74.8463C409.187 75.3918 409.045 76.0389 409.045 76.7879V84.7494Z" fill="white"/>
<path d="M401.669 78.5951C401.197 78.6276 400.843 78.6521 400.607 78.6683C400.379 78.6846 400.033 78.7091 399.569 78.7416C399.097 78.7742 398.625 78.8067 398.153 78.8393C397.159 78.9044 396.39 79.1202 395.845 79.4865C395.307 79.8528 395.035 80.386 395.027 81.0861C395.027 81.542 395.149 81.9287 395.393 82.2461C395.637 82.5636 395.963 82.8038 396.37 82.9666C396.785 83.1213 397.265 83.1945 397.811 83.1864C398.568 83.1864 399.223 83.0358 399.777 82.7346C400.338 82.4334 400.766 82.0345 401.059 81.5379C401.352 81.0413 401.498 80.5081 401.498 79.9383V75.811C401.498 75.2493 401.388 74.769 401.169 74.3701C400.949 73.9631 400.611 73.6578 400.155 73.4543C399.707 73.2508 399.154 73.149 398.494 73.149C397.689 73.149 397.029 73.3159 396.516 73.6497C396.003 73.9753 395.67 74.4027 395.515 74.9318H393.317C393.407 74.2236 393.683 73.5968 394.147 73.0513C394.62 72.4978 395.238 72.0704 396.003 71.7692C396.769 71.468 397.632 71.3174 398.592 71.3174C399.357 71.3174 400.11 71.4314 400.851 71.6593C401.592 71.8872 402.231 72.3512 402.768 73.0513C403.306 73.7433 403.574 74.7283 403.574 76.0064V84.7494H401.498V82.9422H401.401C401.132 83.4957 400.664 83.9882 399.996 84.4197C399.337 84.843 398.486 85.0587 397.444 85.0669C396.598 85.0587 395.832 84.8959 395.149 84.5784C394.465 84.2528 393.923 83.7847 393.525 83.1742C393.126 82.5555 392.926 81.8269 392.926 80.9884C392.926 79.6208 393.394 78.6561 394.331 78.0944C395.275 77.5246 396.467 77.1868 397.908 77.0809C398.291 77.0484 398.731 77.0199 399.227 76.9955C399.724 76.9629 400.212 76.9344 400.692 76.91C401.01 76.9018 401.327 76.8937 401.645 76.8856L401.669 78.5951Z" fill="white"/>
<path d="M388.53 74.9318C388.376 74.362 388.075 73.9183 387.627 73.6008C387.187 73.2752 386.593 73.1083 385.844 73.1002C385.307 73.1002 384.826 73.1897 384.403 73.3688C383.98 73.5479 383.646 73.7921 383.402 74.1015C383.158 74.4027 383.035 74.7364 383.035 75.1028C383.044 75.5424 383.231 75.9168 383.597 76.2262C383.964 76.5274 384.533 76.7716 385.307 76.9588L387.285 77.4473C388.465 77.724 389.349 78.1636 389.935 78.766C390.521 79.3603 390.818 80.1174 390.826 81.0373C390.818 81.8106 390.61 82.4985 390.203 83.1009C389.804 83.6952 389.21 84.1633 388.421 84.5052C387.639 84.8471 386.707 85.018 385.624 85.018C384.639 85.018 383.784 84.8756 383.06 84.5906C382.344 84.3057 381.77 83.8865 381.338 83.3329C380.907 82.7712 380.634 82.0874 380.52 81.2815H382.718C382.84 81.9246 383.137 82.4049 383.609 82.7224C384.082 83.0399 384.737 83.1945 385.575 83.1864C386.202 83.1864 386.748 83.105 387.212 82.9422C387.684 82.7794 388.042 82.5473 388.286 82.2461C388.53 81.9368 388.653 81.5745 388.653 81.1594C388.653 80.6872 388.477 80.2965 388.127 79.9871C387.777 79.6778 387.228 79.4336 386.479 79.2545L384.476 78.7905C383.329 78.5218 382.449 78.0822 381.839 77.4717C381.236 76.8611 380.935 76.1122 380.935 75.2249C380.935 74.4759 381.143 73.8043 381.558 73.2101C381.973 72.6158 382.551 72.1518 383.292 71.818C384.033 71.4843 384.883 71.3174 385.844 71.3174C386.739 71.3174 387.529 71.468 388.213 71.7692C388.897 72.0704 389.438 72.4937 389.837 73.0391C390.244 73.5845 390.492 74.2154 390.582 74.9318H388.53Z" fill="white"/>
<path d="M375.88 78.5951C375.408 78.6276 375.054 78.6521 374.818 78.6683C374.59 78.6846 374.244 78.7091 373.78 78.7416C373.308 78.7742 372.836 78.8067 372.363 78.8393C371.37 78.9044 370.601 79.1202 370.056 79.4865C369.518 79.8528 369.246 80.386 369.237 81.0861C369.237 81.542 369.36 81.9287 369.604 82.2461C369.848 82.5636 370.174 82.8038 370.581 82.9666C370.996 83.1213 371.476 83.1945 372.022 83.1864C372.779 83.1864 373.434 83.0358 373.988 82.7346C374.549 82.4334 374.977 82.0345 375.27 81.5379C375.563 81.0413 375.709 80.5081 375.709 79.9383V75.811C375.709 75.2493 375.599 74.769 375.38 74.3701C375.16 73.9631 374.822 73.6578 374.366 73.4543C373.918 73.2508 373.365 73.149 372.705 73.149C371.899 73.149 371.24 73.3159 370.727 73.6497C370.214 73.9753 369.881 74.4027 369.726 74.9318H367.528C367.618 74.2236 367.894 73.5968 368.358 73.0513C368.83 72.4978 369.449 72.0704 370.214 71.7692C370.98 71.468 371.842 71.3174 372.803 71.3174C373.568 71.3174 374.321 71.4314 375.062 71.6593C375.803 71.8872 376.442 72.3512 376.979 73.0513C377.517 73.7433 377.785 74.7283 377.785 76.0064V84.7494H375.709V82.9422H375.612C375.343 83.4957 374.875 83.9882 374.207 84.4197C373.548 84.843 372.697 85.0587 371.655 85.0669C370.809 85.0587 370.043 84.8959 369.36 84.5784C368.676 84.2528 368.134 83.7847 367.736 83.1742C367.337 82.5555 367.137 81.8269 367.137 80.9884C367.137 79.6208 367.605 78.6561 368.541 78.0944C369.486 77.5246 370.678 77.1868 372.119 77.0809C372.502 77.0484 372.941 77.0199 373.438 76.9955C373.935 76.9629 374.423 76.9344 374.903 76.91C375.221 76.9018 375.538 76.8937 375.856 76.8856L375.88 78.5951Z" fill="white"/>
<path d="M349.358 67.0679L355.317 81.6233H355.537L361.495 67.0679H364.133V84.7493H362.057V71.3905H361.886L356.391 84.7493H354.438L348.943 71.3905H348.796V84.7493H346.72V67.0679H349.358Z" fill="white"/>
<path d="M328.282 89.7319C327.68 89.7156 327.289 89.6993 327.11 89.683V87.8025C327.207 87.8107 327.549 87.827 328.135 87.8514C328.494 87.8432 328.791 87.8025 329.027 87.7293C329.263 87.6641 329.495 87.4851 329.723 87.192C329.959 86.9071 330.187 86.4593 330.407 85.8488L330.797 84.8475L325.889 71.4888H328.184L331.799 82.0146H331.945L335.56 71.4888H337.855L332.238 86.6547C331.848 87.6967 331.327 88.466 330.675 88.9626C330.024 89.4673 329.226 89.7237 328.282 89.7319Z" fill="white"/>
<path d="M324.228 73.2462H317.316V71.4878H324.228V73.2462ZM321.444 68.313V80.9391C321.444 81.4682 321.521 81.8793 321.676 82.1724C321.83 82.4573 322.034 82.6527 322.286 82.7585C322.539 82.8643 322.836 82.9172 323.178 82.9172C323.324 82.9172 323.475 82.9132 323.629 82.905C323.792 82.8969 323.951 82.8928 324.106 82.8928L324.423 82.8684V84.8221C323.984 84.8873 323.495 84.9198 322.958 84.9198C322.339 84.9198 321.753 84.7896 321.199 84.5291C320.646 84.2686 320.194 83.8819 319.844 83.369C319.494 82.848 319.319 82.2171 319.319 81.4763V68.313H321.444Z" fill="white"/>
<path d="M312.993 71.4889H315.093V84.7499H312.993V71.4889ZM314.043 69.2909C313.774 69.2909 313.526 69.2258 313.298 69.0955C313.078 68.9653 312.903 68.7984 312.773 68.5949C312.643 68.3832 312.578 68.1512 312.578 67.8989C312.578 67.6465 312.643 67.4145 312.773 67.2029C312.903 66.9831 313.078 66.8121 313.298 66.69C313.526 66.5679 313.774 66.5068 314.043 66.5068C314.303 66.5068 314.548 66.5679 314.776 66.69C315.004 66.8121 315.187 66.9831 315.325 67.2029C315.463 67.4145 315.533 67.6465 315.533 67.8989C315.533 68.1512 315.463 68.3832 315.325 68.5949C315.187 68.7984 315.004 68.9653 314.776 69.0955C314.548 69.2258 314.303 69.2909 314.043 69.2909Z" fill="white"/>
<path d="M307.987 72.6356C307.824 71.846 307.502 71.1703 307.022 70.6086C306.542 70.0388 305.955 69.6073 305.263 69.3143C304.58 69.0212 303.843 68.8747 303.053 68.8747C301.971 68.8747 300.998 69.1474 300.135 69.6928C299.28 70.2382 298.604 71.0401 298.108 72.0984C297.611 73.1566 297.363 74.4266 297.363 75.9082C297.363 77.3816 297.611 78.6475 298.108 79.7057C298.604 80.7559 299.28 81.5577 300.135 82.1113C300.998 82.6567 301.971 82.9335 303.053 82.9416C303.843 82.9335 304.58 82.787 305.263 82.502C305.955 82.209 306.537 81.7816 307.01 81.2199C307.49 80.6582 307.816 79.9866 307.987 79.2051H310.184C309.973 80.3855 309.533 81.4153 308.866 82.2945C308.198 83.1655 307.36 83.833 306.35 84.297C305.349 84.7611 304.25 84.9931 303.053 84.9931C301.539 84.9931 300.192 84.6227 299.011 83.8819C297.831 83.1411 296.907 82.0869 296.24 80.7193C295.572 79.3435 295.238 77.7398 295.238 75.9082C295.238 74.0765 295.572 72.4769 296.24 71.1093C296.907 69.7335 297.831 68.6752 299.011 67.9344C300.192 67.1936 301.539 66.8232 303.053 66.8232C304.25 66.8232 305.349 67.0512 306.35 67.5071C307.36 67.9629 308.198 68.6305 308.866 69.5096C309.533 70.3888 309.973 71.4308 310.184 72.6356H307.987Z" fill="white"/>
<path d="M283.834 84.7494H281.734V71.4883H283.761V73.5642H283.932C284.257 72.856 284.742 72.3065 285.385 71.9157C286.036 71.5168 286.846 71.3174 287.815 71.3174C288.727 71.3174 289.516 71.5005 290.184 71.8669C290.851 72.2332 291.368 72.7949 291.735 73.552C292.101 74.3009 292.284 75.2249 292.284 76.3239V84.7494H290.184V76.4704C290.184 75.7947 290.066 75.2127 289.83 74.7242C289.594 74.2276 289.248 73.8491 288.792 73.5886C288.344 73.3281 287.807 73.1979 287.18 73.1979C286.529 73.1979 285.951 73.3363 285.446 73.613C284.941 73.8898 284.546 74.3009 284.262 74.8463C283.977 75.3918 283.834 76.0389 283.834 76.7879V84.7494Z" fill="white"/>
<path d="M272.966 85.018C271.77 85.018 270.711 84.7331 269.791 84.1633C268.88 83.5934 268.171 82.7956 267.667 81.7699C267.162 80.7361 266.91 79.5394 266.91 78.1799C266.91 76.8123 267.162 75.6116 267.667 74.5777C268.171 73.5438 268.88 72.742 269.791 72.1721C270.711 71.6023 271.77 71.3174 272.966 71.3174C274.155 71.3174 275.205 71.6023 276.117 72.1721C277.028 72.742 277.733 73.5438 278.229 74.5777C278.726 75.6116 278.974 76.8123 278.974 78.1799C278.974 79.5394 278.726 80.7361 278.229 81.7699C277.733 82.7956 277.028 83.5934 276.117 84.1633C275.205 84.7331 274.155 85.018 272.966 85.018ZM272.966 83.162C273.821 83.162 274.542 82.9381 275.128 82.4904C275.722 82.0426 276.161 81.4402 276.446 80.6831C276.731 79.9261 276.874 79.0917 276.874 78.1799C276.874 77.2682 276.731 76.4338 276.446 75.6767C276.161 74.9196 275.722 74.3131 275.128 73.8573C274.542 73.4014 273.821 73.1734 272.966 73.1734C272.103 73.1734 271.375 73.4014 270.781 73.8573C270.186 74.3131 269.743 74.9196 269.45 75.6767C269.165 76.4338 269.018 77.2682 269.01 78.1799C269.018 79.0917 269.165 79.9261 269.45 80.6831C269.743 81.4402 270.186 82.0426 270.781 82.4904C271.375 82.9381 272.103 83.162 272.966 83.162Z" fill="white"/>
<path d="M247.493 71.4888H249.716L252.548 81.5994H252.671L255.479 71.4888H257.726L260.486 81.5506H260.632L263.465 71.4888H265.663L261.633 84.7498H259.558L256.676 74.6392H256.48L253.623 84.7498H251.523L247.493 71.4888Z" fill="white"/>
<path d="M239.434 90.0001C238.367 90.0001 237.423 89.8495 236.601 89.5483C235.787 89.2471 235.135 88.8034 234.647 88.2173C234.167 87.6393 233.89 86.9473 233.817 86.1414H236.015C236.153 86.809 236.519 87.3137 237.113 87.6556C237.708 87.9975 238.481 88.1684 239.434 88.1684C240.598 88.1684 241.497 87.9039 242.132 87.3747C242.775 86.8537 243.097 86.06 243.097 84.9936V82.3072H242.926L242.877 82.3805C242.649 82.7631 242.405 83.1009 242.144 83.394C241.884 83.6789 241.493 83.9435 240.972 84.1877C240.459 84.4319 239.824 84.554 239.067 84.554C237.985 84.5459 237.016 84.2813 236.161 83.7603C235.314 83.2312 234.647 82.47 234.158 81.4769C233.67 80.4756 233.426 79.2952 233.426 77.9357C233.426 76.6006 233.666 75.4325 234.146 74.4312C234.627 73.4299 235.294 72.6606 236.149 72.1233C237.004 71.586 237.985 71.3174 239.092 71.3174C239.824 71.3174 240.439 71.4314 240.936 71.6593C241.432 71.8872 241.811 72.1437 242.071 72.4286C242.34 72.7054 242.608 73.0432 242.877 73.4421C242.91 73.4909 242.942 73.5398 242.975 73.5886H243.146V71.4883H245.197V85.1157C245.197 86.2147 244.949 87.1264 244.452 87.8509C243.956 88.5836 243.272 89.125 242.401 89.475C241.538 89.825 240.549 90.0001 239.434 90.0001ZM239.36 82.6735C240.166 82.6735 240.85 82.4863 241.412 82.1118C241.982 81.7374 242.413 81.2041 242.706 80.5122C242.999 79.8121 243.146 78.9777 243.146 78.009C243.138 77.0484 242.987 76.2058 242.694 75.4813C242.409 74.7568 241.982 74.1951 241.412 73.7962C240.85 73.3973 240.166 73.1979 239.36 73.1979C238.538 73.1979 237.838 73.4054 237.26 73.8206C236.69 74.2358 236.263 74.8097 235.978 75.5424C235.693 76.275 235.55 77.0972 235.55 78.009C235.55 78.937 235.697 79.751 235.99 80.4511C236.283 81.1512 236.711 81.6967 237.272 82.0874C237.842 82.4781 238.538 82.6735 239.36 82.6735Z" fill="white"/>
<path d="M222.242 84.7494H220.142V71.4883H222.169V73.5642H222.34C222.665 72.856 223.15 72.3065 223.793 71.9157C224.444 71.5168 225.254 71.3174 226.223 71.3174C227.134 71.3174 227.924 71.5005 228.592 71.8669C229.259 72.2332 229.776 72.7949 230.142 73.552C230.509 74.3009 230.692 75.2249 230.692 76.3239V84.7494H228.592V76.4704C228.592 75.7947 228.474 75.2127 228.237 74.7242C228.001 74.2276 227.655 73.8491 227.2 73.5886C226.752 73.3281 226.215 73.1979 225.588 73.1979C224.936 73.1979 224.358 73.3363 223.854 73.613C223.349 73.8898 222.954 74.3009 222.669 74.8463C222.384 75.3918 222.242 76.0389 222.242 76.7879V84.7494Z" fill="white"/>
<path d="M214.866 78.5951C214.394 78.6276 214.04 78.6521 213.804 78.6683C213.576 78.6846 213.23 78.7091 212.766 78.7416C212.294 78.7742 211.821 78.8067 211.349 78.8393C210.356 78.9044 209.587 79.1202 209.041 79.4865C208.504 79.8528 208.231 80.386 208.223 81.0861C208.223 81.542 208.345 81.9287 208.59 82.2461C208.834 82.5636 209.16 82.8038 209.567 82.9666C209.982 83.1213 210.462 83.1945 211.007 83.1864C211.765 83.1864 212.42 83.0358 212.973 82.7346C213.535 82.4334 213.962 82.0345 214.256 81.5379C214.549 81.0413 214.695 80.5081 214.695 79.9383V75.811C214.695 75.2493 214.585 74.769 214.365 74.3701C214.146 73.9631 213.808 73.6578 213.352 73.4543C212.904 73.2508 212.351 73.149 211.691 73.149C210.885 73.149 210.226 73.3159 209.713 73.6497C209.2 73.9753 208.866 74.4027 208.712 74.9318H206.514C206.603 74.2236 206.88 73.5968 207.344 73.0513C207.816 72.4978 208.435 72.0704 209.2 71.7692C209.965 71.468 210.828 71.3174 211.789 71.3174C212.554 71.3174 213.307 71.4314 214.048 71.6593C214.789 71.8872 215.428 72.3512 215.965 73.0513C216.502 73.7433 216.771 74.7283 216.771 76.0064V84.7494H214.695V82.9422H214.597C214.329 83.4957 213.861 83.9882 213.193 84.4197C212.534 84.843 211.683 85.0587 210.641 85.0669C209.794 85.0587 209.029 84.8959 208.345 84.5784C207.662 84.2528 207.12 83.7847 206.721 83.1742C206.322 82.5555 206.123 81.8269 206.123 80.9884C206.123 79.6208 206.591 78.6561 207.527 78.0944C208.472 77.5246 209.664 77.1868 211.105 77.0809C211.488 77.0484 211.927 77.0199 212.424 76.9955C212.92 76.9629 213.409 76.9344 213.889 76.91C214.207 76.9018 214.524 76.8937 214.842 76.8856L214.866 78.5951Z" fill="white"/>
<path d="M194.792 84.7493H192.692V67.0679H194.792V73.5641H194.963C195.289 72.8477 195.769 72.2941 196.404 71.9034C197.039 71.5126 197.861 71.3173 198.871 71.3173C199.791 71.3173 200.588 71.5004 201.264 71.8668C201.948 72.2331 202.473 72.7907 202.839 73.5397C203.206 74.2886 203.389 75.2166 203.389 76.3237V84.7493H201.288V76.4703C201.288 75.7783 201.166 75.1881 200.922 74.6997C200.678 74.2031 200.328 73.8286 199.872 73.5763C199.416 73.3239 198.871 73.1977 198.236 73.1977C197.568 73.1977 196.978 73.3361 196.465 73.6129C195.952 73.8897 195.545 74.3008 195.244 74.8462C194.943 75.3916 194.792 76.0388 194.792 76.7878V84.7493Z" fill="white"/>
<path d="M187.684 72.6356C187.521 71.846 187.2 71.1703 186.72 70.6086C186.239 70.0388 185.653 69.6073 184.961 69.3143C184.277 69.0212 183.541 68.8747 182.751 68.8747C181.668 68.8747 180.696 69.1474 179.833 69.6928C178.978 70.2382 178.302 71.0401 177.806 72.0984C177.309 73.1566 177.061 74.4266 177.061 75.9082C177.061 77.3816 177.309 78.6475 177.806 79.7057C178.302 80.7559 178.978 81.5577 179.833 82.1113C180.696 82.6567 181.668 82.9335 182.751 82.9416C183.541 82.9335 184.277 82.787 184.961 82.502C185.653 82.209 186.235 81.7816 186.707 81.2199C187.188 80.6582 187.513 79.9866 187.684 79.2051H189.882C189.671 80.3855 189.231 81.4153 188.563 82.2945C187.896 83.1655 187.057 83.833 186.048 84.297C185.047 84.7611 183.948 84.9931 182.751 84.9931C181.237 84.9931 179.89 84.6227 178.709 83.8819C177.529 83.1411 176.605 82.0869 175.937 80.7193C175.27 79.3435 174.936 77.7398 174.936 75.9082C174.936 74.0765 175.27 72.4769 175.937 71.1093C176.605 69.7335 177.529 68.6752 178.709 67.9344C179.89 67.1936 181.237 66.8232 182.751 66.8232C183.948 66.8232 185.047 67.0512 186.048 67.5071C187.057 67.9629 187.896 68.6305 188.563 69.5096C189.231 70.3888 189.671 71.4308 189.882 72.6356H187.684Z" fill="white"/>
<g clip-path="url(#clip0_35_2377)">
<path d="M79.1006 22.2385L83.7246 16.3709C88.8572 9.85649 95.639 4.71271 103.515 2.09462C136.53 -8.87055 173.214 24.6872 154.887 61.7871C140.353 91.2329 94.5601 91.9875 80.6111 62.2953C76.8503 65.283 75.0778 70.3498 71.3015 73.7533C37.3308 104.354 -16.3997 65.7296 4.82429 22.7467C19.1894 -6.36027 65.5986 -8.13133 79.1006 22.2385ZM129.933 17.6492L79.8404 37.4542L29.7629 17.6492C35.3579 33.5117 33.4158 51.1453 28.2216 66.9154L79.8559 48.4194L131.49 66.9154C126.296 51.1453 124.354 33.5117 129.949 17.6492H129.933Z" fill="white"/>
</g>
<defs>
<clipPath id="clip0_35_2377">
<rect width="159.773" height="84.7491" fill="white"/>
</clipPath>
</defs>
</svg>
