<svg width="128" height="144" viewBox="0 0 128 144" fill="none" xmlns="http://www.w3.org/2000/svg">
<mask id="mask0_35_3038" style="mask-type:luminance" maskUnits="userSpaceOnUse" x="0" y="0" width="128" height="143">
<path d="M127.474 0H0V142.028H127.474V0Z" fill="white"/>
</mask>
<g mask="url(#mask0_35_3038)">
<path d="M63.875 119.401H50.7274V115.121H67.0854C67.4554 115.121 68.596 116.98 68.6968 117.484C68.9506 118.735 68.9598 122.652 68.2962 123.67C68.1006 123.972 67.0182 124.905 66.7798 124.905H55.008C54.8858 125.26 55.1426 126.128 55.4666 126.128H71.9776L72.4362 125.669V119.86L69.6906 117.108C70.6782 116.445 72.1642 114.185 73.0508 113.726C73.2862 113.604 73.4268 113.519 73.6592 113.726C74.2036 114.014 76.8056 116.64 76.9646 117.169C77.2182 118.013 77.1908 126.345 77.0074 127.486C76.7628 129.024 75.2768 129.984 73.8274 130.115C67.0304 130.742 59.2948 129.604 52.3938 130.115C50.125 130.158 50.492 125.055 50.7426 123.541C51.5468 118.738 60.2916 121.269 63.6824 120.582L63.875 119.398V119.401Z" fill="white"/>
<path d="M27.4908 115.427V119.402H21.5284L21.076 119.86C21.403 120.203 22.5986 121.334 22.5986 121.695V129.186H29.0196V133.466H0.583984V129.186H7.15778L7.61642 128.727V124.141C7.61642 123.887 4.77288 121.903 7.77236 120.013L7.46354 119.402H2.11278V115.427H27.4908ZM11.1326 119.402L10.6801 119.86C11.3895 120.493 12.16 121.285 12.1631 122.309C12.1631 122.588 11.897 122.82 11.897 122.918V128.727L12.3557 129.186H17.5536L18.0122 128.727V124.141C18.0122 123.887 15.1687 121.903 18.1681 120.013L17.8593 119.402H11.1326Z" fill="white"/>
<path d="M116.772 122.459C116.726 124.376 116.542 126.859 118.313 128.104C118.524 128.253 119.872 128.88 119.982 128.88H126.556C126.391 129.745 127.002 132.503 126.054 132.812C121.508 132.708 115.662 134.219 113.702 128.892L113.255 128.871C112.503 128.972 111.638 130.357 110.941 130.849C108.006 132.922 104.706 133.54 101.157 133.029L100.869 128.883H105.608C107.556 128.883 111.299 124.982 111.745 123.086L111.418 122.462H100.869V118.182H126.094C126.831 119.087 126.84 121.524 126.094 122.462H116.769L116.772 122.459Z" fill="white"/>
<path d="M76.7162 131.326V135.607C72.0258 136.026 67.2162 136.029 62.4832 135.928C61.3488 135.903 56.5026 135.09 55.9644 135.952C55.7198 136.347 55.9002 137.484 56.3802 137.747H76.7132V142.028H52.7112C52.1668 141.56 52.0202 141.04 51.9406 140.352C51.7816 138.988 51.754 133.448 52.4114 132.555C52.5522 132.363 53.8364 131.326 53.9342 131.326H76.7132H76.7162Z" fill="white"/>
<path d="M-0.000848676 137.472L29.1838 137.215C29.8686 137.337 29.8106 141.266 29.3428 141.59L0.732972 141.725L0.0113816 141.223L-0.00390625 137.472H-0.000848676Z" fill="white"/>
<path d="M127.473 137.441V141.722H100.108C99.172 140.664 99.8386 138.799 99.649 137.441H127.473Z" fill="white"/>
<path d="M118.912 113.897V117.261H109.281C108.409 116.454 108.96 114.989 108.822 113.897H118.912Z" fill="white"/>
<path d="M44.577 3.05758C48.3624 3.05758 52.2608 4.09104 54.6518 6.12128C59.9108 10.5945 59.3788 17.3671 62.1124 22.562C64.7968 27.665 73.355 39.6538 77.6632 43.3228C85.8942 50.334 92.5994 51.132 102.381 54C117.253 58.357 127.676 69.5662 123.041 85.9304C119.659 97.8732 107.735 102.771 96.2808 103.297C95.6082 103.328 94.645 103.432 93.688 103.432C92.3702 103.432 91.0616 103.236 90.5418 102.389C95.0334 100.995 100.882 100.711 105.157 98.8456C106.16 98.4084 107.095 97.9802 107.548 96.8734C101.078 97.7142 94.4004 101.154 87.9642 101.876C87.4138 101.937 86.4416 102.032 85.4416 102.032C83.4236 102.032 81.2864 101.649 82.2588 99.8484L107.545 94.1062C107.276 93.0056 106.515 92.6294 105.545 92.6294C103.695 92.6294 101.09 94.0116 99.745 94.354C93.0704 96.0418 86.307 97.7692 79.51 98.7048C79.5008 98.2004 79.3938 97.7754 79.721 97.3106C80.7514 95.8552 98.6626 91.9078 102.011 90.6452C102.998 90.272 108.465 88.4376 106.172 86.9668L80.1032 95.8614L79.0482 95.95C77.6082 94.4762 83.6164 91.9782 84.5702 91.593C89.7988 89.4802 106.404 86.1658 107.469 79.54C107.621 78.586 107.313 78.0846 106.82 78.0846C106.447 78.0846 105.964 78.372 105.502 78.9712C101.8 83.732 101.029 84.3098 95.2474 86.6428C85.136 90.7246 76.162 93.1768 67.7138 93.1768C56.572 93.1768 46.3414 88.9114 35.597 78.4974C33.845 76.7974 32.622 74.2014 30.3226 73.434C29.8976 73.8346 35.7958 80.9892 36.5082 81.72C37.3428 82.5762 42.0484 86.0648 42.2228 86.606C43.1462 89.4496 37.3704 95.4332 33.9092 95.4332C33.744 95.4332 33.582 95.418 33.426 95.3904C33.053 95.3232 32.6342 94.6842 32.3774 94.6812C31.8392 94.6812 29.8916 97.2892 28.0416 97.2892C27.6594 97.2892 27.2804 97.1792 26.9196 96.91L26.6076 95.7176L29.3992 92.9566C29.3472 92.9566 29.2984 92.9536 29.2494 92.9536C26.5466 92.9536 25.0056 97.3504 21.9296 97.3504C21.532 97.3504 21.1102 97.277 20.6546 97.1118L20.1868 95.736C21.3426 94.9838 22.7306 94.4426 22.5014 92.7334C20.4528 93.721 17.7682 95.9958 15.3955 95.9958C14.4905 95.9958 13.6282 95.6656 12.8638 94.8034L15.6126 92.7396C13.1635 92.8374 11.1761 94.4824 8.6138 94.4824C8.571 94.4824 8.52512 94.4824 8.48232 94.4824C7.26846 94.4548 3.03676 93.0972 4.85602 91.7826C13.0381 89.8808 19.2817 86.0894 22.0702 77.8216C25.2838 68.288 21.7858 56.3696 22.4892 46.0656C23.0486 37.8652 25.8494 32.6764 27.8918 25.271C29.8488 18.1804 29.6072 9.14218 36.8872 4.84932C38.9144 3.65382 41.706 3.0637 44.568 3.0637M55.5538 18.0214C57.0856 18.0214 57.685 14.9974 56.2816 14.5938C56.1318 14.551 55.988 14.5296 55.8534 14.5296C54.3032 14.5296 53.8446 17.1989 54.7374 17.7584C55.031 17.9419 55.3062 18.0214 55.5538 18.0214ZM33.9582 18.1284C34.2302 18.1284 34.5208 18 34.8082 17.6912C36.187 16.2144 34.7868 14.5908 33.6676 14.5908C33.0776 14.5908 32.57 15.0403 32.5822 16.1991C32.5944 17.1286 33.2028 18.1284 33.9582 18.1284ZM41.3728 28.3254C42.2288 28.3254 43.0392 28.1268 43.6628 27.6956C45.3568 26.069 42.452 25.381 42.0332 24.7022C40.7398 22.6138 43.0636 21.394 45.2254 21.394C46.8336 21.394 48.3532 22.0696 48.231 23.5678C48.1362 24.7266 46.3596 25.6408 45.7176 26.5338L46.0692 27.8118C47.121 28.2062 48.1362 28.3896 49.0626 28.3896C53.1566 28.3896 55.5874 24.846 52.3922 20.336C50.7106 17.9602 47.6346 16.8198 44.6076 16.8198C39.74 16.8198 35.0068 19.7703 36.4194 25.28C36.8934 27.1268 39.266 28.3254 41.3728 28.3254ZM42.8588 30.2212C42.6936 30.2212 42.4948 30.2028 42.3114 30.2028C41.9078 30.2028 41.5776 30.2976 41.8252 30.903C42.2534 31.9486 43.7668 32.4624 45.3842 32.4624C47.543 32.4624 49.885 31.5482 50.093 29.7626C47.7356 30.1998 45.3384 30.056 42.9626 30.218C42.929 30.218 42.8954 30.2212 42.8618 30.2212M33.5422 34.8106C34.3832 34.0186 29.8854 31.7468 29.4114 31.594C29.176 33.8596 31.8484 34.462 33.5422 34.8106ZM60.1372 36.6696C61.831 36.6696 63.3232 35.4526 63.8826 33.8994C63.6992 33.872 63.5188 33.8596 63.3384 33.8596C61.6446 33.8596 60.2716 35.0308 59.7458 36.6482C59.8772 36.6634 60.0088 36.6696 60.1372 36.6696ZM42.2808 44.925L43.6628 43.7938C43.6966 42.5156 42.1004 41.7116 41.8864 40.9104C41.599 39.8372 42.6324 38.8924 42.0516 38.0302C37.6608 40.5588 42.4338 41.8888 42.2808 44.922M53.4532 53.7828C59.0884 53.7828 67.2612 51.0708 67.5762 45.1422C67.6252 44.2066 67.72 42.9254 66.6468 42.6288C66.1636 48.4658 63.797 50.236 58.4646 51.6884C56.1898 52.306 53.1474 52.1288 51.472 53.6544C52.0804 53.74 52.747 53.7828 53.4532 53.7828ZM41.7274 61.9528C41.8252 61.9528 41.9262 61.9528 42.024 61.9466C48.5672 61.6622 47.6836 56.4032 49.8484 51.8076C49.992 51.6212 50.4812 51.5784 51.0866 51.5784C51.5514 51.5784 52.0834 51.6028 52.5758 51.6028C53.918 51.6028 54.979 51.4254 53.6398 50.0984C52.4136 48.8816 50.781 49.5236 49.7628 49.1752C48.3532 48.692 47.2708 47.414 45.1244 46.9034C44.2438 46.6924 42.8894 46.5394 41.4248 46.5394C38.1928 46.5394 34.429 47.2824 34.0314 49.7836C33.2702 54.587 35.9638 61.9528 41.7244 61.9528M55.3214 58.7148C57.0122 58.7148 58.6512 58.2684 59.7428 56.8802C59.5714 56.8832 59.4034 56.8864 59.232 56.8864C58.486 56.8864 57.7338 56.8526 56.9848 56.8526C56.465 56.8526 55.9452 56.868 55.4284 56.926C54.5938 57.0178 52.3494 57.4 51.9336 58.25C52.9824 58.5068 54.1656 58.7148 55.3214 58.7148ZM66.604 72.4738C73.4468 72.4738 80.3018 69.8842 83.1852 64.6954C79.7668 66.264 77.3422 68.811 73.5354 69.9788C71.6276 70.5628 69.3282 70.8778 66.9188 70.8778C60.498 70.8778 53.3126 68.6396 50.7656 63.3286C49.9186 61.5614 49.9798 59.5464 48.7202 58.2562C48.0964 67.7286 57.3426 72.4738 66.607 72.4738M53.3126 62.39C53.5206 62.3746 53.7314 62.3686 53.9456 62.3686C54.719 62.3686 55.5354 62.445 56.3274 62.445C57.5962 62.445 58.8162 62.2524 59.7366 61.2434C59.758 60.797 58.7428 60.5616 57.5138 60.5616C55.6028 60.5616 53.175 61.1334 53.3126 62.39ZM39.9816 77.5586L43.8096 77.1092L44.1124 75.724C43.0788 76.0146 39.798 75.9168 39.9816 77.5586ZM44.577 0C41.0364 0 37.7586 0.782742 35.3432 2.20758C28.5738 6.19772 27.2222 13.2577 26.0328 19.4829C25.6966 21.244 25.3786 22.9104 24.9536 24.4484C24.3298 26.705 23.6204 28.7902 22.9356 30.8052C21.3516 35.4526 19.8565 39.8434 19.4468 45.8484C19.1594 50.0404 19.5263 54.4342 19.881 58.6812C20.4344 65.307 20.9572 71.5688 19.1808 76.837C17.0374 83.1968 12.4083 86.8842 4.17114 88.7984C3.77364 88.89 3.40062 89.0612 3.0704 89.2998C1.34287 90.5472 1.13801 92.3084 1.52021 93.5436C2.51392 96.7358 7.47944 97.5154 8.41812 97.5368C8.48538 97.5368 8.55264 97.5368 8.61992 97.5368C9.46686 97.5368 10.2527 97.4176 10.9773 97.2404C12.2034 98.4266 13.723 99.0504 15.4016 99.0504C16.2914 99.0504 17.1567 98.873 17.9853 98.5918C18.34 99.2308 18.9148 99.7292 19.6119 99.983C20.3854 100.264 21.1652 100.408 21.9356 100.408C23.2352 100.408 24.3268 100.026 25.2592 99.4784C26.0878 100.047 27.048 100.35 28.0478 100.35C29.9466 100.35 31.5242 99.2798 32.6526 98.3472C32.726 98.3656 32.8024 98.3838 32.8788 98.396C33.2152 98.4572 33.5636 98.4908 33.9152 98.4908C37.4102 98.4908 41.2688 95.366 43.3786 92.4644C44.0604 91.5256 44.571 90.6024 44.9074 89.7126C52.1508 94.1246 59.6052 96.2314 67.72 96.2314C70.2944 96.2314 72.9636 96.0172 75.7736 95.577C75.798 96.2986 76.0304 96.9896 76.4554 97.592C76.4126 98.0048 76.431 98.3502 76.4462 98.5918C76.4462 98.6438 76.4524 98.6988 76.4554 98.7538C76.4708 99.6282 76.859 100.454 77.5226 101.026C77.975 101.414 78.5286 101.659 79.1094 101.735C79.2012 102.068 79.3388 102.386 79.5192 102.692C80.8002 104.841 83.5154 105.089 85.4448 105.089C86.31 105.089 87.2732 105.031 88.3066 104.915C88.4198 104.903 88.5298 104.89 88.643 104.875C90.294 106.49 92.789 106.49 93.691 106.49C94.4372 106.49 95.1618 106.438 95.7426 106.398C95.9934 106.379 96.2228 106.364 96.4246 106.355C103.136 106.046 109.288 104.383 114.217 101.548C120.145 98.1362 124.215 93.027 125.985 86.768C128.413 78.1916 127.211 70.2082 122.509 63.6802C118.347 57.9046 111.685 53.5444 103.243 51.0708C101.497 50.5602 99.8704 50.1168 98.2958 49.6918C91.1074 47.7442 85.9156 46.3376 79.6506 41.0022C75.636 37.5838 67.356 25.9558 64.8244 21.1462C63.9866 19.5532 63.479 17.6545 62.944 15.6457C61.8952 11.7136 60.7058 7.25564 56.6392 3.80058C53.8446 1.42483 49.3408 0.00917274 44.5832 0.00917274L44.577 0ZM37.034 50.4196C37.4316 50.1138 38.8564 49.597 41.4308 49.597C42.7732 49.597 43.8556 49.7408 44.4212 49.8752C45.1886 50.0588 45.7512 50.4164 46.4636 50.866C46.5798 50.9394 46.699 51.0158 46.8214 51.0922C46.2862 52.355 45.9346 53.5964 45.6198 54.7094C44.6718 58.0696 44.3844 58.782 41.8926 58.8922C41.8374 58.8922 41.7824 58.8952 41.7274 58.8952C40.6848 58.8952 39.7858 58.4396 38.9848 57.4978C37.5386 55.804 36.713 52.7892 37.034 50.4164V50.4196Z" fill="white"/>
<mask id="mask1_35_3038" style="mask-type:luminance" maskUnits="userSpaceOnUse" x="36" y="48" width="14" height="12">
<path d="M50 48H36V60H50V48Z" fill="white"/>
</mask>
<g mask="url(#mask1_35_3038)">
<path d="M49.5756 50.7708C48.7322 49.8232 47.609 50.3232 46.9086 50.0518C45.939 49.6756 45.1944 48.6806 43.7178 48.2832C41.7744 47.757 36.4844 47.6952 36.0868 50.5256C35.5546 54.3272 37.4792 60.1974 41.583 59.995C46.0842 59.7736 45.4762 55.6792 46.9654 52.1014C47.3482 51.5372 51.2772 52.6774 49.5756 50.7708ZM41.707 53.1202C41.7806 52.8608 44.0502 52.7918 44.2942 53.225C44.2942 53.2798 43.8566 53.4536 43.7494 53.4726C43.194 53.5678 41.953 53.6058 41.707 53.1202ZM44.1006 55.0032L44.0586 55.0174C43.8588 55.0722 43.7872 55.0818 43.6064 54.9866C43.5496 54.9484 43.4822 54.896 43.4634 54.8104C43.4444 54.727 43.5348 54.658 43.6716 54.627C43.8734 54.5248 44.6454 54.7676 44.1006 55.0032ZM43.9828 54.2534L43.9134 54.2748C43.5958 54.3558 43.4822 54.3724 43.2066 54.282C43.1204 54.2438 43.0194 54.1938 42.9964 54.101C42.9732 54.0106 43.1204 53.9248 43.3372 53.8796C43.661 53.7464 44.8556 53.9416 43.9828 54.2534ZM37.2352 49.9828C37.2394 49.7162 38.6866 48.8948 39.04 48.8116C40.8782 48.3926 44.9672 48.2998 45.7644 50.6922C45.514 51.9586 38.0262 52.1324 37.2352 49.9804V49.9828Z" fill="white"/>
</g>
</g>
</svg>
