<svg width="346" height="90" viewBox="0 0 346 90" fill="none" xmlns="http://www.w3.org/2000/svg">
<g clip-path="url(#clip0_35_2605)">
<path d="M73.8699 2.97888V2.10254H57.4162V2.97888H64.9693L45.7578 65.3415L23.0044 2.97888H30.4948V2.10254H0V2.97888H8.02509L39.5209 89.181L66.5977 2.97888H73.8699Z" fill="white"/>
<path d="M102.075 0.250977C91.1664 0.250977 81.3575 6.3054 74.8382 14.7747C68.2262 23.4011 65.0293 34.2868 65.0293 45.1097C65.0293 55.9326 68.51 67.7603 75.6538 76.5707C81.9236 84.3236 91.6071 89.9984 101.73 89.9984C112.541 89.9984 122.289 83.8469 128.744 75.4432C135.326 66.8168 138.554 55.9311 138.554 45.1425C138.554 34.3539 135.012 22.4605 127.898 13.6458C121.725 5.99426 112.105 0.250977 102.075 0.250977ZM101.794 88.7124C84.9323 88.7124 80.5134 57.5939 80.5134 45.1097C80.5134 32.6255 84.9024 1.53694 101.794 1.53694C118.685 1.53694 123.073 32.6554 123.073 45.1111C123.073 57.5668 118.623 88.7124 101.794 88.7138V88.7124Z" fill="white"/>
<path d="M345.31 54.991C345.155 58.1281 344.901 61.2966 344.371 64.4023C343.4 69.9557 340.608 75.0996 336.598 79.0517C331.895 83.6931 325.285 86.579 318.638 86.579H305.822V44.1681C307.358 44.0425 308.861 43.9483 310.395 43.9483C320.143 43.9483 323.809 52.8572 325.156 61.1696H325.941V26.3816H325.156C324.687 35.5431 321.898 42.9449 311.149 42.9449C309.361 42.9449 307.573 42.8193 305.821 42.6323V2.97884H314.375C322.303 2.97884 330.016 3.60683 335.685 10.0366C341.295 16.405 342.863 24.7802 343.773 32.937H344.369V2.10107H265.423V2.97884H275.011V68.8582C275.011 79.1801 266.518 86.2051 256.427 86.2051C247.059 86.2051 236.341 79.8666 236.341 69.4548V2.98026H244.458V2.1025H213.873V2.97741H222.238V66.4062C222.238 82.1559 237.409 88.8355 251.168 88.8355C263.325 88.8355 276.301 82.7811 276.301 69.1065V2.97884H291.472V86.579H284.294V87.4582H346.002V54.991H345.312H345.31Z" fill="white"/>
<path d="M188.922 52.8256H196.756V75.98C196.756 77.5158 196.693 79.0201 195.877 80.3689C192.713 85.547 186.381 88.5585 180.428 88.5585C172.936 88.5585 168.893 85.016 166.104 77.7998C162.124 67.5107 161.248 56.1883 161.248 45.2069C161.248 32.9411 162.877 0.787846 180.803 0.787846C188.607 0.787846 194.594 7.62441 198.353 13.7102C201.517 18.9169 203.335 24.6573 204.62 30.5547H205.31V0.596594H204.626C202.527 2.16515 200.081 3.95208 197.353 3.95208C195.162 3.95208 192.937 3.23131 190.9 2.47915L189.111 1.78835C186.666 0.814964 184.067 0 181.433 0C174.695 0 168.366 2.97869 163.131 7.02639C151.473 16.0281 145.987 31.4311 145.987 45.8321C145.987 65.5297 157.834 89.2764 180.084 89.2764C184.941 89.2764 189.143 87.8677 193.53 85.9223L195.474 84.8562C197.633 83.6644 200.045 82.7852 202.524 82.7852C205.937 82.7852 208.602 84.6364 210.296 87.4595H210.888V52.8271H217.596V51.9193H188.919V52.8271L188.922 52.8256Z" fill="white"/>
</g>
<defs>
<clipPath id="clip0_35_2605">
<rect width="346" height="90" fill="white"/>
</clipPath>
</defs>
</svg>
