<svg width="64" height="72" viewBox="0 0 64 72" fill="none" xmlns="http://www.w3.org/2000/svg">
<g clip-path="url(#clip0_126_246)">
<path d="M31.9375 59.7007H25.3637V57.5603H33.5427C33.7277 57.5603 34.298 58.4898 34.3484 58.7421C34.4753 59.3674 34.4799 61.3258 34.1481 61.8348C34.0503 61.9862 33.5091 62.4525 33.3899 62.4525H27.504C27.4429 62.6298 27.5713 63.064 27.7333 63.064H35.9888L36.2181 62.8347V59.93L34.8453 58.5541C35.3391 58.2223 36.0821 57.0925 36.5254 56.8632C36.6431 56.8021 36.7134 56.7593 36.8296 56.8632C37.1018 57.0069 38.4028 58.3202 38.4823 58.5846C38.6091 59.0066 38.5954 63.1725 38.5037 63.7428C38.3814 64.5118 37.6384 64.9918 36.9137 65.0575C33.5152 65.3709 29.6474 64.8022 26.1969 65.0575C25.0625 65.0789 25.246 62.5274 25.3713 61.7706C25.7734 59.3689 30.1458 60.6347 31.8412 60.2908L31.9375 59.6991V59.7007Z" fill="white"/>
<path d="M13.7454 57.7134V59.7008H10.7642L10.538 59.9301C10.7015 60.1014 11.2993 60.667 11.2993 60.8474V64.5929H14.5098V66.7332H0.291992V64.5929H3.57889L3.80821 64.3636V62.0704C3.80821 61.9435 2.38644 60.9514 3.88618 60.0066L3.73177 59.7008H1.05639V57.7134H13.7454ZM5.56632 59.7008L5.34006 59.9301C5.69474 60.2466 6.08 60.6425 6.08153 61.1547C6.08153 61.2938 5.94852 61.41 5.94852 61.4589V64.3636L6.17784 64.5929H8.77679L9.0061 64.3636V62.0704C9.0061 61.9435 7.58433 60.9514 9.08407 60.0066L8.92966 59.7008H5.56632Z" fill="white"/>
<path d="M58.3858 61.2296C58.3629 62.1882 58.2712 63.4295 59.1563 64.0518C59.2618 64.1267 59.936 64.4401 59.991 64.4401H63.278C63.1954 64.8727 63.5012 66.2517 63.0272 66.4061C60.7539 66.3541 57.8309 67.1093 56.8509 64.4462L56.6277 64.4355C56.2516 64.4859 55.819 65.1785 55.4704 65.4246C54.0028 66.4611 52.3532 66.7699 50.5783 66.5146L50.4346 64.4416H52.8042C53.778 64.4416 55.6493 62.4909 55.8725 61.543L55.7089 61.2311H50.4346V59.0908H63.0471C63.4155 59.5433 63.4201 60.7618 63.0471 61.2311H58.3843L58.3858 61.2296Z" fill="white"/>
<path d="M38.3581 65.6631V67.8034C36.0129 68.0128 33.6081 68.0144 31.2416 67.9639C30.6744 67.9517 28.2513 67.545 27.9822 67.9761C27.8599 68.1734 27.9501 68.7421 28.1901 68.8735H38.3566V71.0139H26.3556C26.0834 70.78 26.0101 70.5201 25.9703 70.1761C25.8908 69.4942 25.877 66.7241 26.2057 66.2777C26.2761 66.1813 26.9182 65.6631 26.9671 65.6631H38.3566H38.3581Z" fill="white"/>
<path d="M-0.000424333 68.7358L14.5919 68.6074C14.9343 68.6686 14.9053 70.6331 14.6714 70.7951L0.366486 70.8624L0.00569083 70.6117L-0.00195312 68.7358H-0.000424333Z" fill="white"/>
<path d="M63.7365 68.7207V70.861H50.0538C49.586 70.332 49.9193 69.3995 49.8245 68.7207H63.7365Z" fill="white"/>
<path d="M59.4561 56.9487V58.6304H54.6405C54.2047 58.2268 54.4799 57.4945 54.4111 56.9487H59.4561Z" fill="white"/>
<path d="M22.2885 1.52879C24.1812 1.52879 26.1304 2.04552 27.3259 3.06064C29.9554 5.29726 29.6894 8.68354 31.0562 11.281C32.3984 13.8325 36.6775 19.8269 38.8316 21.6614C42.9471 25.167 46.2997 25.566 51.1903 27C58.6264 29.1785 63.838 34.7831 61.5204 42.9652C59.8296 48.9366 53.8673 51.3857 48.1404 51.6487C47.8041 51.664 47.3225 51.716 46.844 51.716C46.1851 51.716 45.5308 51.6181 45.2709 51.1946C47.5167 50.4975 50.4412 50.3553 52.5785 49.4228C53.0799 49.2042 53.5477 48.9901 53.774 48.4367C50.5391 48.8571 47.2002 50.577 43.9821 50.9378C43.7069 50.9684 43.2208 51.0158 42.7208 51.0158C41.7118 51.0158 40.6432 50.8247 41.1294 49.9242L53.7725 47.0531C53.6379 46.5028 53.2573 46.3147 52.7727 46.3147C51.8477 46.3147 50.5452 47.0058 49.8725 47.177C46.5352 48.0209 43.1535 48.8846 39.755 49.3524C39.7504 49.1002 39.6969 48.8877 39.8605 48.6553C40.3757 47.9276 49.3313 45.9539 51.0054 45.3226C51.4992 45.136 54.2326 44.2188 53.0861 43.4834L40.0516 47.9307L39.5241 47.975C38.8041 47.2381 41.8082 45.9891 42.2851 45.7965C44.8994 44.7401 53.2022 43.0829 53.7343 39.77C53.8107 39.293 53.6563 39.0423 53.4102 39.0423C53.2236 39.0423 52.9821 39.186 52.7512 39.4856C50.8999 41.866 50.5146 42.1549 47.6237 43.3214C42.568 45.3623 38.081 46.5884 33.8569 46.5884C28.286 46.5884 23.1707 44.4557 17.7985 39.2487C16.9225 38.3987 16.311 37.1007 15.1613 36.717C14.9488 36.9173 17.8979 40.4946 18.2541 40.86C18.6714 41.2881 21.0242 43.0324 21.1114 43.303C21.5731 44.7248 18.6852 47.7166 16.9546 47.7166C16.872 47.7166 16.791 47.709 16.713 47.6952C16.5265 47.6616 16.3171 47.3421 16.1887 47.3406C15.9196 47.3406 14.9458 48.6446 14.0208 48.6446C13.8297 48.6446 13.6402 48.5896 13.4598 48.455L13.3038 47.8588L14.6996 46.4783C14.6736 46.4783 14.6492 46.4768 14.6247 46.4768C13.2733 46.4768 12.5028 48.6752 10.9648 48.6752C10.766 48.6752 10.5551 48.6385 10.3273 48.5559L10.0934 47.868C10.6713 47.4919 11.3653 47.2213 11.2507 46.3667C10.2264 46.8605 8.8841 47.9979 7.69776 47.9979C7.24524 47.9979 6.81412 47.8328 6.43192 47.4017L7.8063 46.3698C6.58174 46.4187 5.58803 47.2412 4.3069 47.2412C4.2855 47.2412 4.26256 47.2412 4.24116 47.2412C3.63423 47.2274 1.51838 46.5486 2.42801 45.8913C6.51906 44.9404 9.64085 43.0447 11.0351 38.9108C12.6419 34.144 10.8929 28.1848 11.2446 23.0328C11.5243 18.9326 12.9247 16.3382 13.9459 12.6355C14.9244 9.09019 14.8036 4.57109 18.4436 2.42466C19.4572 1.82691 20.853 1.53185 22.284 1.53185M27.7769 9.0107C28.5428 9.0107 28.8425 7.49872 28.1408 7.29692C28.0659 7.27552 27.994 7.26482 27.9267 7.26482C27.1516 7.26482 26.9223 8.59945 27.3687 8.87922C27.5155 8.97095 27.6531 9.0107 27.7769 9.0107ZM16.9791 9.06421C17.1151 9.06421 17.2604 9 17.4041 8.84559C18.0935 8.10718 17.3934 7.29539 16.8338 7.29539C16.5388 7.29539 16.285 7.52013 16.2911 8.09954C16.2972 8.56429 16.6014 9.06421 16.9791 9.06421ZM20.6864 14.1627C21.1144 14.1627 21.5196 14.0634 21.8314 13.8478C22.6784 13.0345 21.226 12.6905 21.0166 12.3511C20.3699 11.3069 21.5318 10.697 22.6127 10.697C23.4168 10.697 24.1766 11.0348 24.1155 11.7839C24.0681 12.3633 23.1798 12.8204 22.8588 13.2669L23.0346 13.9059C23.5605 14.1031 24.0681 14.1948 24.5313 14.1948C26.5783 14.1948 27.7937 12.423 26.1961 10.168C25.3553 8.98012 23.8173 8.40988 22.3038 8.40988C19.87 8.40988 17.5034 9.88517 18.2097 12.64C18.4467 13.5634 19.633 14.1627 20.6864 14.1627ZM21.4294 15.1106C21.3468 15.1106 21.2474 15.1014 21.1557 15.1014C20.9539 15.1014 20.7888 15.1488 20.9126 15.4515C21.1267 15.9743 21.8834 16.2312 22.6921 16.2312C23.7715 16.2312 24.9425 15.7741 25.0465 14.8813C23.8678 15.0999 22.6692 15.028 21.4813 15.109C21.4645 15.109 21.4477 15.1106 21.4309 15.1106M16.7711 17.4053C17.1916 17.0093 14.9427 15.8734 14.7057 15.797C14.588 16.9298 15.9242 17.231 16.7711 17.4053ZM30.0686 18.3348C30.9155 18.3348 31.6616 17.7263 31.9413 16.9497C31.8496 16.936 31.7594 16.9298 31.6692 16.9298C30.8223 16.9298 30.1358 17.5154 29.8729 18.3241C29.9386 18.3317 30.0044 18.3348 30.0686 18.3348ZM21.1404 22.4625L21.8314 21.8969C21.8483 21.2578 21.0502 20.8558 20.9432 20.4552C20.7995 19.9186 21.3162 19.4462 21.0258 19.0151C18.8304 20.2794 21.2169 20.9444 21.1404 22.461M26.7266 26.8914C29.5442 26.8914 33.6306 25.5354 33.7881 22.5711C33.8126 22.1033 33.86 21.4627 33.3234 21.3144C33.0818 24.2329 31.8985 25.118 29.2323 25.8442C28.0949 26.153 26.5737 26.0644 25.736 26.8272C26.0402 26.87 26.3735 26.8914 26.7266 26.8914ZM20.8637 30.9764C20.9126 30.9764 20.9631 30.9764 21.012 30.9733C24.2836 30.8311 23.8418 28.2016 24.9242 25.9038C24.996 25.8106 25.2406 25.7892 25.5433 25.7892C25.7757 25.7892 26.0417 25.8014 26.2879 25.8014C26.959 25.8014 27.4895 25.7127 26.8199 25.0492C26.2068 24.4408 25.3905 24.7618 24.8814 24.5876C24.1766 24.346 23.6354 23.707 22.5622 23.4517C22.1219 23.3462 21.4447 23.2697 20.7124 23.2697C19.0964 23.2697 17.2145 23.6412 17.0157 24.8918C16.6351 27.2935 17.9819 30.9764 20.8622 30.9764M27.6607 29.3574C28.5061 29.3574 29.3256 29.1342 29.8714 28.4401C29.7857 28.4416 29.7017 28.4432 29.616 28.4432C29.243 28.4432 28.8669 28.4263 28.4924 28.4263C28.2325 28.4263 27.9726 28.434 27.7142 28.463C27.2969 28.5089 26.1747 28.7 25.9668 29.125C26.4912 29.2534 27.0828 29.3574 27.6607 29.3574ZM33.302 36.2369C36.7234 36.2369 40.1509 34.9421 41.5926 32.3477C39.8834 33.132 38.6711 34.4055 36.7677 34.9894C35.8138 35.2814 34.6641 35.4389 33.4594 35.4389C30.249 35.4389 26.6563 34.3198 25.3828 31.6643C24.9593 30.7807 24.9899 29.7732 24.3601 29.1281C24.0482 33.8643 28.6713 36.2369 33.3035 36.2369M26.6563 31.195C26.7603 31.1873 26.8657 31.1843 26.9728 31.1843C27.3595 31.1843 27.7677 31.2225 28.1637 31.2225C28.7981 31.2225 29.4081 31.1262 29.8683 30.6217C29.879 30.3985 29.3714 30.2808 28.7569 30.2808C27.8014 30.2808 26.5875 30.5667 26.6563 31.195ZM19.9908 38.7793L21.9048 38.5546L22.0562 37.862C21.5394 38.0073 19.899 37.9584 19.9908 38.7793ZM22.2885 0C20.5182 0 18.8793 0.391371 17.6716 1.10379C14.2869 3.09886 13.6111 6.62884 13.0164 9.74146C12.8483 10.622 12.6893 11.4552 12.4768 12.2242C12.1649 13.3525 11.8102 14.3951 11.4678 15.4026C10.6758 17.7263 9.92827 19.9217 9.72341 22.9242C9.5797 25.0202 9.76316 27.2171 9.9405 29.3406C10.2172 32.6535 10.4786 35.7844 9.5904 38.4185C8.51872 41.5984 6.20413 43.4421 2.08557 44.3992C1.88682 44.445 1.70031 44.5306 1.5352 44.6499C0.671433 45.2736 0.569004 46.1542 0.760103 46.7718C1.25696 48.3679 3.73972 48.7577 4.20906 48.7684C4.24269 48.7684 4.27632 48.7684 4.30996 48.7684C4.73343 48.7684 5.12633 48.7088 5.48866 48.6202C6.1017 49.2133 6.86151 49.5252 7.70082 49.5252C8.1457 49.5252 8.57834 49.4365 8.99265 49.2959C9.16999 49.6154 9.4574 49.8646 9.80596 49.9915C10.1927 50.1321 10.5826 50.204 10.9678 50.204C11.6176 50.204 12.1634 50.0129 12.6296 49.7392C13.0439 50.0236 13.524 50.1749 14.0239 50.1749C14.9733 50.1749 15.7621 49.6399 16.3263 49.1736C16.363 49.1828 16.4012 49.1919 16.4394 49.198C16.6076 49.2286 16.7818 49.2454 16.9576 49.2454C18.7051 49.2454 20.6344 47.683 21.6893 46.2322C22.0302 45.7628 22.2855 45.3012 22.4537 44.8563C26.0754 47.0623 29.8026 48.1157 33.86 48.1157C35.1472 48.1157 36.4818 48.0086 37.8868 47.7885C37.899 48.1493 38.0152 48.4948 38.2277 48.796C38.2063 49.0024 38.2155 49.1751 38.2231 49.2959C38.2231 49.3219 38.2262 49.3494 38.2277 49.3769C38.2354 49.8141 38.4295 50.2269 38.7613 50.5128C38.9875 50.707 39.2643 50.8293 39.5547 50.8675C39.6006 51.0341 39.6694 51.1931 39.7596 51.346C40.4001 52.4207 41.7577 52.5446 42.7224 52.5446C43.155 52.5446 43.6366 52.5155 44.1533 52.4574C44.2099 52.4513 44.2649 52.4452 44.3215 52.4375C45.147 53.2448 46.3945 53.2448 46.8455 53.2448C47.2186 53.2448 47.5809 53.2188 47.8713 53.1989C47.9967 53.1897 48.1114 53.1821 48.2123 53.1775C51.568 53.0231 54.6439 52.1914 57.1083 50.7742C60.0726 49.0681 62.1075 46.5135 62.9926 43.384C64.2065 39.0958 63.6057 35.1041 61.2544 31.8401C59.1737 28.9523 55.8425 26.7722 51.6215 25.5354C50.7485 25.2801 49.9352 25.0584 49.1479 24.8459C45.5537 23.8721 42.9578 23.1688 39.8253 20.5011C37.818 18.7919 33.678 12.9779 32.4122 10.5731C31.9933 9.77662 31.7395 8.82724 31.472 7.82283C30.9476 5.8568 30.3529 3.62782 28.3196 1.90029C26.9223 0.712417 24.6704 0.00458637 22.2916 0.00458637L22.2885 0ZM18.517 25.2098C18.7158 25.0569 19.4282 24.7985 20.7154 24.7985C21.3866 24.7985 21.9278 24.8704 22.2106 24.9376C22.5943 25.0294 22.8756 25.2082 23.2318 25.433C23.2899 25.4697 23.3495 25.5079 23.4107 25.5461C23.1431 26.1775 22.9673 26.7982 22.8099 27.3547C22.3359 29.0348 22.1922 29.391 20.9463 29.4461C20.9187 29.4461 20.8912 29.4476 20.8637 29.4476C20.3424 29.4476 19.8929 29.2198 19.4924 28.7489C18.7693 27.902 18.3565 26.3946 18.517 25.2082V25.2098Z" fill="white"/>
<g clip-path="url(#clip1_126_246)">
<path d="M24.7878 25.3854C24.3661 24.9116 23.8045 25.1616 23.4543 25.0259C22.9695 24.8378 22.5972 24.3403 21.8589 24.1416C20.8872 23.8785 18.2422 23.8476 18.0434 25.2628C17.7773 27.1636 18.7396 30.0987 20.7915 29.9975C23.0421 29.8868 22.7381 27.8396 23.4827 26.0507C23.6741 25.7686 25.6376 26.3387 24.7868 25.3854H24.7878ZM20.8535 26.5601C20.8903 26.4304 22.0251 26.3959 22.1471 26.6125C22.1471 26.6399 21.9283 26.7268 21.8747 26.7363C21.597 26.7839 20.9765 26.8029 20.8535 26.5601ZM22.0503 27.5016L22.0293 27.5087C21.9294 27.5361 21.8936 27.5409 21.8032 27.4933C21.7748 27.4742 21.7411 27.448 21.7317 27.4052C21.7222 27.3635 21.7674 27.329 21.8358 27.3135C21.9367 27.2624 22.3227 27.3838 22.0503 27.5016ZM21.9914 27.1267L21.9567 27.1374C21.7979 27.1779 21.7411 27.1862 21.6033 27.141C21.5602 27.1219 21.5097 27.0969 21.4982 27.0505C21.4866 27.0053 21.5602 26.9624 21.6686 26.9398C21.8305 26.8732 22.4268 26.9708 21.9904 27.1267H21.9914ZM18.6176 24.9914C18.6197 24.8581 19.3433 24.4474 19.52 24.4058C20.4391 24.1963 22.4836 24.1499 22.8822 25.3461C22.757 25.9793 19.0131 26.0662 18.6176 24.9902V24.9914Z" fill="white"/>
</g>
</g>
<defs>
<clipPath id="clip0_126_246">
<rect width="63.7369" height="71.0139" fill="white"/>
</clipPath>
<clipPath id="clip1_126_246">
<rect width="7" height="6" fill="white" transform="translate(18 24)"/>
</clipPath>
</defs>
</svg>
