<svg width="226" height="30" viewBox="0 0 226 30" fill="none" xmlns="http://www.w3.org/2000/svg">
<path d="M217.923 3.68339H211.169V1.89607H217.923V3.68339ZM215.327 9.44062H213.145V5.50508H215.327V9.44062ZM219.22 2.97878C219.214 3.78651 219.191 4.53122 219.151 5.21293C219.111 5.89463 219.017 6.64221 218.868 7.45567L216.702 7.26662C216.857 6.44744 216.954 5.73136 216.994 5.1184C217.04 4.50545 217.069 3.80083 217.08 3.00456V2.86707V1.89607H219.22V2.86707V2.97878ZM223.044 12.4567H220.793V0.744629H223.044V12.4567ZM224.943 7.36115H222.159V5.53086H224.943V7.36115ZM223.534 16.1345H212.543V14.3643H223.534V16.1345ZM214.743 14.9229H212.543V11.417H214.743V14.9229ZM210.24 8.59852C212.114 8.59852 213.847 8.56701 215.439 8.504C217.037 8.44098 218.544 8.30636 219.959 8.10013L220.062 9.68122C218.613 9.95047 217.092 10.1281 215.499 10.214C213.907 10.2999 212.217 10.3429 210.43 10.3429L210.24 8.59852Z" fill="white"/>
<path d="M203.108 1.17419C203.103 2.04493 202.842 2.83834 202.326 3.55441C201.811 4.26476 201.069 4.85767 200.101 5.33314C199.133 5.80288 197.993 6.11223 196.681 6.26117L195.942 4.61993C197.07 4.49963 198.033 4.26476 198.829 3.91531C199.631 3.56587 200.233 3.15628 200.634 2.68653C201.04 2.21106 201.244 1.70694 201.244 1.17419V0.847656H203.108V1.17419ZM203.504 1.17419C203.504 1.70694 203.704 2.21106 204.105 2.68653C204.512 3.15628 205.113 3.56587 205.91 3.91531C206.712 4.25903 207.674 4.4939 208.797 4.61993L208.066 6.26117C206.737 6.11796 205.589 5.80861 204.621 5.33314C203.653 4.85767 202.908 4.26476 202.387 3.55441C201.871 2.83834 201.613 2.04493 201.613 1.17419V0.847656H203.504V1.17419ZM203.443 10.4287H201.244V8.23753H203.443V10.4287ZM209.51 8.6328H195.246V6.90564H209.51V8.6328ZM207.766 13.7112H199.052V15.0861H196.896V12.1645H205.6V11.3224H196.887V9.66395H207.766V13.7112ZM208.178 16.2891H196.896V14.6478H208.178V16.2891Z" fill="white"/>
<path d="M188.372 12.6715H180.81V2.17964H188.372V12.6715ZM182.992 10.9358H186.232V3.88962H182.992V10.9358ZM193.123 16.4438H190.898V0.744629H193.123V16.4438Z" fill="white"/>
<path d="M177.905 12.1987H175.714V0.778809H177.905V12.1987ZM178.335 16.1343H167.431V14.3641H178.335V16.1343ZM169.648 15.3008H167.431V11.0817H169.648V15.3008ZM170.361 3.14185C170.355 4.19591 170.186 5.18409 169.854 6.10639C169.527 7.02297 169.029 7.82783 168.359 8.52099C167.694 9.21415 166.872 9.72686 165.893 10.0591L164.758 8.33195C165.606 8.04552 166.311 7.63306 166.872 7.09457C167.439 6.55609 167.857 5.94886 168.127 5.27288C168.396 4.59691 168.533 3.88657 168.539 3.14185V1.6381H170.361V3.14185ZM170.816 3.14185C170.811 3.85792 170.937 4.53963 171.194 5.18696C171.452 5.82856 171.856 6.40142 172.406 6.90553C172.956 7.40965 173.646 7.79346 174.477 8.05698L173.36 9.79274C172.397 9.46621 171.59 8.97928 170.937 8.33195C170.284 7.67889 169.794 6.91126 169.467 6.02906C169.141 5.14113 168.977 4.17872 168.977 3.14185V1.6381H170.816V3.14185Z" fill="white"/>
<path d="M163.899 10.2397H149.601V8.48679H163.899V10.2397ZM158.022 12.9379H155.856V9.58667H158.022V12.9379ZM162.077 7.20645H151.379V1.44922H162.077V7.20645ZM153.528 5.49646H159.921V3.14202H153.528V5.49646ZM162.327 16.1344H151.268V14.3643H162.327V16.1344ZM153.467 14.9486H151.268V11.5716H153.467V14.9486Z" fill="white"/>
<path d="M139.787 3.42522C139.787 4.48501 139.621 5.4646 139.289 6.36398C138.962 7.26337 138.467 8.04819 137.802 8.71843C137.144 9.38868 136.33 9.88706 135.362 10.2136L134.142 8.48642C135.001 8.21718 135.714 7.82191 136.281 7.30061C136.854 6.77931 137.275 6.18926 137.545 5.53047C137.82 4.86596 137.957 4.16421 137.957 3.42522V1.72383H139.787V3.42522ZM140.165 3.4424C140.165 4.13556 140.297 4.79149 140.561 5.41017C140.83 6.02886 141.237 6.58453 141.781 7.07719C142.331 7.56412 143.015 7.93934 143.835 8.20286L142.683 9.92144C141.738 9.60636 140.947 9.12803 140.312 8.48642C139.676 7.84482 139.197 7.09724 138.877 6.24368C138.561 5.3844 138.404 4.45064 138.404 3.4424V1.72383H140.165V3.4424ZM146.808 12.2243H144.617V0.77002H146.808V12.2243ZM148.922 7.13734H146.172V5.29847H148.922V7.13734ZM147.392 16.1341H136.66V14.364H147.392V16.1341ZM138.894 15.3006H136.66V11.0901H138.894V15.3006Z" fill="white"/>
<path d="M127.199 12.577H119.689V2.23979H127.199V12.577ZM121.846 10.8499H125.025V3.94977H121.846V10.8499ZM131.53 16.4009H129.33V0.744629H131.53V16.4009ZM133.85 8.48681H131.049V6.65653H133.85V8.48681Z" fill="white"/>
<path d="M117.068 9.49199H114.877V0.778809H117.068V9.49199ZM106.181 7.4297C107.395 7.42397 108.375 7.41251 109.119 7.39533C109.87 7.37814 110.606 7.3409 111.328 7.28362C112.05 7.2206 112.78 7.12608 113.519 7.00005L113.785 8.76159C112.663 8.95064 111.543 9.0738 110.426 9.13109C109.308 9.18837 107.893 9.21988 106.181 9.22561H104.806V7.4297H106.181ZM112.032 6.12358H106.963V8.60692H104.806V4.46515H109.867V3.22778H104.789V1.46624H112.032V6.12358ZM108.784 11.4941H114.885V10.1365H117.068V16.2288H106.61V10.1365H108.784V11.4941ZM114.885 14.4673V13.1783H108.784V14.4673H114.885Z" fill="white"/>
<path d="M94.443 4.29349C94.443 5.66835 94.274 6.94869 93.936 8.1345C93.6037 9.32032 93.0967 10.3658 92.415 11.2709C91.7391 12.1703 90.8998 12.852 89.8973 13.316L88.5654 11.4857C89.4476 11.1134 90.1952 10.5606 90.8082 9.8273C91.4211 9.08831 91.8766 8.24621 92.1744 7.301C92.4781 6.35005 92.6327 5.34755 92.6385 4.29349V1.95622H94.443V4.29349ZM94.864 4.29349C94.8583 5.29026 95.0044 6.24121 95.3022 7.14632C95.6001 8.04571 96.0441 8.85058 96.6341 9.56092C97.2299 10.2713 97.9574 10.8069 98.8167 11.1678L97.5278 12.9293C96.5482 12.4825 95.7233 11.8294 95.0531 10.9702C94.3885 10.1051 93.8873 9.1055 93.5493 7.97124C93.217 6.83125 93.0538 5.60533 93.0595 4.29349V1.95622H94.864V4.29349ZM101.867 16.4438H99.6417V0.744629H101.867V16.4438Z" fill="white"/>
<path d="M79.8951 12.2159H77.6867V8.76159H79.8951V12.2159ZM86.8123 12.594H84.6125V0.778809H86.8123V12.594ZM87.156 16.1343H75.4869V14.3641H87.156V16.1343ZM77.6953 14.8368H75.4869V11.4598H77.6953V14.8368ZM73.502 7.71326C75.5872 7.69608 77.4203 7.65884 79.0014 7.60155C80.5825 7.53854 82.1006 7.41538 83.5556 7.23206L83.6673 8.80456C82.155 9.05661 80.571 9.22847 78.9155 9.32013C77.2656 9.40606 75.5471 9.44616 73.7597 9.44043L73.502 7.71326ZM85.1109 11.348H81.6222V9.85289H85.1109V11.348ZM78.5889 1.30297C79.3394 1.30297 80.0125 1.42041 80.6083 1.65528C81.204 1.89015 81.6681 2.22241 82.0003 2.65206C82.3326 3.07597 82.4987 3.56004 82.4987 4.10425C82.4987 4.65993 82.3326 5.14399 82.0003 5.55645C81.6681 5.96891 81.204 6.29257 80.6083 6.52744C80.0182 6.75659 79.3451 6.87116 78.5889 6.87116C77.8213 6.87116 77.1396 6.75659 76.5438 6.52744C75.9538 6.29257 75.4926 5.96891 75.1604 5.55645C74.8281 5.14399 74.662 4.65993 74.662 4.10425C74.662 3.56004 74.8281 3.07311 75.1604 2.64346C75.4926 2.21382 75.9567 1.88443 76.5524 1.65528C77.1482 1.42041 77.827 1.30297 78.5889 1.30297ZM78.5889 2.90984C78.2166 2.90984 77.8929 2.95567 77.6179 3.04733C77.343 3.13899 77.1253 3.27647 76.9649 3.45979C76.8102 3.63737 76.7357 3.85219 76.7415 4.10425C76.7357 4.35631 76.8102 4.57113 76.9649 4.74872C77.1253 4.9263 77.343 5.06093 77.6179 5.15258C77.8929 5.24424 78.2166 5.29007 78.5889 5.29007C78.9498 5.29007 79.2649 5.24424 79.5342 5.15258C79.8091 5.06093 80.0239 4.9263 80.1786 4.74872C80.3333 4.57113 80.4106 4.35631 80.4106 4.10425C80.4106 3.85792 80.3333 3.6431 80.1786 3.45979C80.0239 3.27647 79.8091 3.13899 79.5342 3.04733C79.2649 2.95567 78.9498 2.90984 78.5889 2.90984Z" fill="white"/>
<path d="M63.6889 4.08706C63.6889 5.02082 63.5228 5.8887 63.1906 6.6907C62.864 7.48697 62.3714 8.183 61.7126 8.77877C61.0538 9.36881 60.2461 9.80419 59.2894 10.0849L58.2239 8.36631C59.0431 8.14863 59.7305 7.81923 60.2862 7.37813C60.8418 6.9313 61.2543 6.42719 61.5235 5.86578C61.7985 5.30438 61.936 4.71147 61.936 4.08706V3.51993H63.6889V4.08706ZM64.11 4.08706C64.11 4.64846 64.2418 5.18408 64.5053 5.69393C64.7745 6.20377 65.1812 6.65919 65.7255 7.06019C66.2754 7.46119 66.96 7.76767 67.7792 7.97963L66.7738 9.71539C65.7999 9.45188 64.9807 9.04228 64.3162 8.48661C63.6517 7.92521 63.1533 7.26929 62.8211 6.51884C62.4945 5.76267 62.3313 4.95207 62.3313 4.08706V3.51993H64.11V4.08706ZM67.2636 4.13862H58.7824V2.41145H67.2636V4.13862ZM64.1358 3.08169H61.936V0.692871H64.1358V3.08169ZM70.7609 10.1966H68.5697V0.744428H70.7609V10.1966ZM72.8747 6.24387H70.1422V4.47374H72.8747V6.24387ZM65.6309 10.4802C66.7251 10.4859 67.6674 10.6062 68.458 10.8411C69.2543 11.0702 69.8615 11.4082 70.2797 11.855C70.6979 12.2961 70.907 12.8289 70.907 13.4533C70.907 14.0663 70.695 14.5904 70.2711 15.0258C69.8472 15.4669 69.2399 15.802 68.4494 16.0312C67.6589 16.2603 66.7194 16.3749 65.6309 16.3749C64.5253 16.3749 63.5715 16.2603 62.7695 16.0312C61.9675 15.802 61.3488 15.4698 60.9134 15.0344C60.4838 14.599 60.269 14.072 60.269 13.4533C60.269 12.8289 60.4838 12.2961 60.9134 11.855C61.3488 11.4082 61.9675 11.0702 62.7695 10.8411C63.5715 10.6062 64.5253 10.4859 65.6309 10.4802ZM65.6309 12.1816C64.9263 12.1816 64.3391 12.2245 63.8694 12.3104C63.4054 12.3964 63.0559 12.5367 62.8211 12.7315C62.5862 12.9205 62.4716 13.1611 62.4774 13.4533C62.4716 13.7397 62.5862 13.9775 62.8211 14.1665C63.0617 14.3498 63.414 14.4902 63.878 14.5876C64.3477 14.6792 64.9321 14.7279 65.6309 14.7336C66.3126 14.7279 66.8826 14.6792 67.3409 14.5876C67.8049 14.4902 68.1544 14.3498 68.3893 14.1665C68.6299 13.9775 68.7502 13.7397 68.7502 13.4533C68.7502 13.1611 68.6327 12.9205 68.3978 12.7315C68.163 12.5367 67.8135 12.3964 67.3495 12.3104C66.8912 12.2245 66.3184 12.1816 65.6309 12.1816Z" fill="white"/>
<path d="M219.521 23.8294H220.197V24.5214H220.254C220.346 24.2853 220.495 24.1022 220.701 23.9719C220.908 23.8389 221.155 23.7725 221.442 23.7725C221.632 23.7725 221.803 23.801 221.955 23.8579C222.107 23.9149 222.239 24.0004 222.35 24.1144C222.461 24.2256 222.552 24.3613 222.623 24.5214H222.671C222.747 24.3694 222.849 24.2365 222.977 24.1225C223.104 24.0085 223.253 23.9217 223.424 23.862C223.598 23.8023 223.789 23.7725 223.998 23.7725C224.267 23.7725 224.502 23.8281 224.703 23.9393C224.906 24.0506 225.065 24.2202 225.179 24.4481C225.293 24.6761 225.35 24.9583 225.35 25.2948V28.2498H224.65V25.3029C224.647 24.9963 224.563 24.7697 224.397 24.6232C224.232 24.4739 224.017 24.3993 223.754 24.3993C223.553 24.3993 223.381 24.4413 223.237 24.5255C223.093 24.6096 222.982 24.7249 222.903 24.8714C222.827 25.018 222.788 25.1862 222.785 25.3762V28.2498H222.077V25.2296C222.077 25.0668 222.042 24.9216 221.971 24.7941C221.901 24.6666 221.799 24.5689 221.666 24.501C221.533 24.4332 221.382 24.3993 221.214 24.3993C221.038 24.3993 220.874 24.4454 220.722 24.5377C220.572 24.6299 220.452 24.7602 220.359 24.9284C220.267 25.094 220.221 25.2812 220.221 25.4901V28.2498H219.521V23.8294Z" fill="white"/>
<path d="M217.706 23.8296H218.398V28.2499H217.706V27.501H217.657C217.545 27.7398 217.377 27.9338 217.152 28.0831C216.929 28.2323 216.661 28.3069 216.346 28.3069C216.061 28.3069 215.81 28.2445 215.593 28.1197C215.379 27.9949 215.212 27.8076 215.092 27.558C214.973 27.3083 214.913 27.0017 214.913 26.6381V23.8296H215.613V26.5893C215.613 26.7982 215.654 26.9814 215.736 27.1388C215.817 27.2934 215.93 27.4142 216.073 27.501C216.22 27.5878 216.387 27.6313 216.574 27.6313C216.75 27.634 216.925 27.5906 217.099 27.501C217.275 27.4088 217.421 27.2731 217.535 27.094C217.649 26.9149 217.706 26.6951 217.706 26.4346V23.8296Z" fill="white"/>
<path d="M212.162 28.3393C211.741 28.3393 211.375 28.2457 211.063 28.0585C210.754 27.8713 210.515 27.6067 210.347 27.2648C210.178 26.9229 210.094 26.5267 210.094 26.0763C210.094 25.6258 210.178 25.2256 210.347 24.8755C210.515 24.5255 210.75 24.2541 211.051 24.0615C211.352 23.8688 211.701 23.7725 212.097 23.7725C212.431 23.7725 212.741 23.8457 213.029 23.9923C213.319 24.1388 213.554 24.3776 213.733 24.7086C213.912 25.0397 214.002 25.463 214.002 25.9786V26.2716H210.583V25.6774H213.294C213.294 25.4331 213.245 25.2134 213.147 25.018C213.049 24.8226 212.91 24.6693 212.728 24.558C212.546 24.4468 212.336 24.3911 212.097 24.3911C211.836 24.3911 211.608 24.4549 211.413 24.5825C211.218 24.71 211.066 24.8809 210.957 25.0953C210.851 25.3097 210.797 25.539 210.794 25.7832V26.1821C210.794 26.5077 210.853 26.7858 210.969 27.0165C211.086 27.2471 211.246 27.4222 211.45 27.5416C211.653 27.661 211.891 27.7207 212.162 27.7207C212.33 27.7207 212.482 27.6976 212.618 27.6515C212.754 27.6053 212.867 27.5456 212.96 27.4724C213.055 27.3964 213.131 27.3109 213.188 27.2159H213.937C213.866 27.4412 213.749 27.6393 213.587 27.8102C213.424 27.9784 213.22 28.1087 212.976 28.201C212.732 28.2932 212.46 28.3393 212.162 28.3393Z" fill="white"/>
<path d="M208.629 24.9773C208.577 24.7873 208.477 24.6394 208.328 24.5336C208.181 24.4251 207.983 24.3694 207.733 24.3667C207.554 24.3667 207.394 24.3966 207.253 24.4563C207.112 24.516 207.001 24.5974 206.919 24.7005C206.838 24.8009 206.797 24.9121 206.797 25.0343C206.8 25.1808 206.862 25.3056 206.984 25.4087C207.107 25.5091 207.297 25.5905 207.554 25.6529L208.214 25.8158C208.607 25.908 208.902 26.0545 209.097 26.2554C209.292 26.4534 209.391 26.7058 209.394 27.0124C209.391 27.2702 209.322 27.4995 209.186 27.7003C209.054 27.8984 208.855 28.0544 208.592 28.1684C208.332 28.2824 208.021 28.3393 207.66 28.3393C207.332 28.3393 207.047 28.2919 206.805 28.1969C206.567 28.1019 206.375 27.9622 206.231 27.7776C206.088 27.5904 205.997 27.3625 205.959 27.0938H206.691C206.732 27.3082 206.831 27.4683 206.989 27.5741C207.146 27.68 207.364 27.7315 207.644 27.7288C207.853 27.7288 208.035 27.7017 208.189 27.6474C208.347 27.5931 208.466 27.5158 208.547 27.4154C208.629 27.3123 208.67 27.1915 208.67 27.0531C208.67 26.8957 208.611 26.7655 208.495 26.6624C208.378 26.5593 208.195 26.4779 207.945 26.4182L207.278 26.2635C206.895 26.1739 206.602 26.0274 206.398 25.8239C206.198 25.6204 206.097 25.3707 206.097 25.075C206.097 24.8253 206.166 24.6014 206.305 24.4034C206.443 24.2053 206.636 24.0506 206.883 23.9393C207.13 23.8281 207.413 23.7725 207.733 23.7725C208.032 23.7725 208.295 23.8227 208.523 23.9231C208.751 24.0235 208.931 24.1646 209.064 24.3464C209.2 24.5282 209.283 24.7385 209.313 24.9773H208.629Z" fill="white"/>
<path d="M204.355 23.8296H205.047V28.2499H204.355V27.501H204.306C204.195 27.7398 204.027 27.9338 203.801 28.0831C203.579 28.2323 203.31 28.3069 202.995 28.3069C202.711 28.3069 202.46 28.2445 202.242 28.1197C202.028 27.9949 201.861 27.8076 201.742 27.558C201.622 27.3083 201.563 27.0017 201.563 26.6381V23.8296H202.263V26.5893C202.263 26.7982 202.304 26.9814 202.385 27.1388C202.466 27.2934 202.579 27.4142 202.723 27.501C202.869 27.5878 203.036 27.6313 203.223 27.6313C203.4 27.634 203.575 27.5906 203.749 27.501C203.925 27.4088 204.07 27.2731 204.184 27.094C204.298 26.9149 204.355 26.6951 204.355 26.4346V23.8296Z" fill="white"/>
<path d="M195.425 22.356L197.411 27.2078H197.484L199.471 22.356H200.35V28.2498H199.658V23.7968H199.601L197.769 28.2498H197.118L195.286 23.7968H195.238V28.2498H194.546V22.356H195.425Z" fill="white"/>
<path d="M191.46 24.4154H189.156V23.8293H191.46V24.4154ZM190.532 22.771V26.9797C190.532 27.1561 190.558 27.2931 190.61 27.3908C190.661 27.4858 190.729 27.5509 190.813 27.5862C190.897 27.6214 190.996 27.6391 191.11 27.6391C191.159 27.6391 191.209 27.6377 191.261 27.635C191.315 27.6323 191.368 27.6309 191.42 27.6309L191.525 27.6228V28.2741C191.379 28.2958 191.216 28.3066 191.037 28.3066C190.831 28.3066 190.635 28.2632 190.451 28.1764C190.266 28.0895 190.116 27.9606 189.999 27.7897C189.882 27.616 189.824 27.4057 189.824 27.1588V22.771H190.532Z" fill="white"/>
<path d="M186.34 23.8296H187.016V24.5053H187.064C187.143 24.2828 187.287 24.1037 187.496 23.968C187.707 23.8296 187.944 23.7591 188.204 23.7563C188.424 23.7645 188.546 23.7699 188.57 23.7726V24.4809C188.524 24.47 188.462 24.4592 188.383 24.4483C188.304 24.4374 188.226 24.432 188.147 24.432C187.938 24.432 187.75 24.4768 187.581 24.5663C187.416 24.6559 187.284 24.7794 187.186 24.9367C187.089 25.0941 187.04 25.2705 187.04 25.4659V28.25H186.34V23.8296Z" fill="white"/>
<path d="M180.544 28.2498L182.701 22.356H183.474L185.632 28.2498H184.858L183.108 23.3084H183.059L181.309 28.2498H180.544ZM184.598 25.946V26.5891H181.578V25.946H184.598Z" fill="white"/>
<path d="M174.927 28.2498H174.227V23.8294H174.902V24.5214H174.959C175.068 24.2853 175.229 24.1022 175.444 23.9719C175.661 23.8389 175.931 23.7725 176.254 23.7725C176.557 23.7725 176.821 23.8335 177.043 23.9556C177.266 24.0777 177.438 24.265 177.56 24.5173C177.682 24.767 177.743 25.075 177.743 25.4413V28.2498H177.043V25.4901C177.043 25.2649 177.004 25.0709 176.925 24.9081C176.846 24.7426 176.731 24.6164 176.579 24.5295C176.43 24.4427 176.251 24.3993 176.042 24.3993C175.825 24.3993 175.632 24.4454 175.464 24.5377C175.296 24.6299 175.164 24.767 175.069 24.9488C174.974 25.1306 174.927 25.3463 174.927 25.596V28.2498Z" fill="white"/>
<path d="M172.411 23.8296H173.111V28.25H172.411V23.8296ZM172.761 23.097C172.672 23.097 172.589 23.0753 172.513 23.0319C172.44 22.9884 172.381 22.9328 172.338 22.865C172.294 22.7944 172.273 22.7171 172.273 22.633C172.273 22.5488 172.294 22.4715 172.338 22.401C172.381 22.3277 172.44 22.2707 172.513 22.23C172.589 22.1893 172.672 22.1689 172.761 22.1689C172.848 22.1689 172.929 22.1893 173.005 22.23C173.081 22.2707 173.142 22.3277 173.189 22.401C173.235 22.4715 173.258 22.5488 173.258 22.633C173.258 22.7171 173.235 22.7944 173.189 22.865C173.142 22.9328 173.081 22.9884 173.005 23.0319C172.929 23.0753 172.848 23.097 172.761 23.097Z" fill="white"/>
<path d="M168.422 28.2498H167.722V22.356H168.422V24.5214H168.479C168.588 24.2826 168.748 24.0981 168.96 23.9678C169.171 23.8376 169.445 23.7724 169.782 23.7724C170.088 23.7724 170.354 23.8335 170.58 23.9556C170.807 24.0777 170.982 24.2636 171.105 24.5132C171.227 24.7629 171.288 25.0722 171.288 25.4413V28.2498H170.588V25.4901C170.588 25.2594 170.547 25.0627 170.466 24.8999C170.384 24.7344 170.267 24.6096 170.116 24.5254C169.964 24.4413 169.782 24.3993 169.57 24.3993C169.348 24.3993 169.151 24.4454 168.98 24.5376C168.809 24.6299 168.673 24.7669 168.573 24.9487C168.472 25.1306 168.422 25.3463 168.422 25.5959V28.2498Z" fill="white"/>
<path d="M166.045 24.9773C165.994 24.7873 165.893 24.6394 165.744 24.5336C165.597 24.4251 165.399 24.3694 165.15 24.3667C164.971 24.3667 164.81 24.3966 164.669 24.4563C164.528 24.516 164.417 24.5974 164.336 24.7005C164.254 24.8009 164.213 24.9121 164.213 25.0343C164.216 25.1808 164.279 25.3056 164.401 25.4087C164.523 25.5091 164.713 25.5905 164.971 25.6529L165.63 25.8158C166.023 25.908 166.318 26.0545 166.513 26.2554C166.709 26.4534 166.808 26.7058 166.81 27.0124C166.808 27.2702 166.738 27.4995 166.603 27.7003C166.47 27.8984 166.272 28.0544 166.008 28.1684C165.748 28.2824 165.437 28.3393 165.076 28.3393C164.748 28.3393 164.463 28.2919 164.222 28.1969C163.983 28.1019 163.792 27.9622 163.648 27.7776C163.504 27.5904 163.413 27.3625 163.375 27.0938H164.108C164.148 27.3082 164.247 27.4683 164.405 27.5741C164.562 27.68 164.781 27.7315 165.06 27.7288C165.269 27.7288 165.451 27.7017 165.606 27.6474C165.763 27.5931 165.882 27.5158 165.964 27.4154C166.045 27.3123 166.086 27.1915 166.086 27.0531C166.086 26.8957 166.027 26.7655 165.911 26.6624C165.794 26.5593 165.611 26.4779 165.361 26.4182L164.694 26.2635C164.311 26.1739 164.018 26.0274 163.815 25.8239C163.614 25.6204 163.513 25.3707 163.513 25.075C163.513 24.8253 163.583 24.6014 163.721 24.4034C163.859 24.2053 164.052 24.0506 164.299 23.9393C164.546 23.8281 164.829 23.7725 165.15 23.7725C165.448 23.7725 165.711 23.8227 165.939 23.9231C166.167 24.0235 166.348 24.1646 166.481 24.3464C166.616 24.5282 166.699 24.7385 166.729 24.9773H166.045Z" fill="white"/>
<path d="M159.647 28.2498H158.947V23.8294H159.622V24.5214H159.679C159.788 24.2853 159.949 24.1022 160.164 23.9719C160.381 23.8389 160.651 23.7725 160.974 23.7725C161.277 23.7725 161.541 23.8335 161.763 23.9556C161.986 24.0777 162.158 24.265 162.28 24.5173C162.402 24.767 162.463 25.075 162.463 25.4413V28.2498H161.763V25.4901C161.763 25.2649 161.724 25.0709 161.645 24.9081C161.566 24.7426 161.451 24.6164 161.299 24.5295C161.15 24.4427 160.971 24.3993 160.762 24.3993C160.545 24.3993 160.352 24.4454 160.184 24.5377C160.016 24.6299 159.884 24.767 159.789 24.9488C159.694 25.1306 159.647 25.3463 159.647 25.596V28.2498Z" fill="white"/>
<path d="M156.024 28.3393C155.625 28.3393 155.273 28.2444 154.966 28.0544C154.662 27.8645 154.426 27.5986 154.258 27.2566C154.089 26.912 154.005 26.5131 154.005 26.06C154.005 25.6041 154.089 25.2039 154.258 24.8592C154.426 24.5146 154.662 24.2473 154.966 24.0574C155.273 23.8674 155.625 23.7725 156.024 23.7725C156.42 23.7725 156.77 23.8674 157.074 24.0574C157.378 24.2473 157.613 24.5146 157.779 24.8592C157.944 25.2039 158.027 25.6041 158.027 26.06C158.027 26.5131 157.944 26.912 157.779 27.2566C157.613 27.5986 157.378 27.8645 157.074 28.0544C156.77 28.2444 156.42 28.3393 156.024 28.3393ZM156.024 27.7207C156.309 27.7207 156.549 27.646 156.745 27.4968C156.943 27.3476 157.089 27.1467 157.184 26.8944C157.279 26.642 157.327 26.3639 157.327 26.06C157.327 25.7561 157.279 25.4779 157.184 25.2256C157.089 24.9732 156.943 24.771 156.745 24.6191C156.549 24.4671 156.309 24.3911 156.024 24.3911C155.737 24.3911 155.494 24.4671 155.296 24.6191C155.098 24.771 154.95 24.9732 154.852 25.2256C154.757 25.4779 154.708 25.7561 154.705 26.06C154.708 26.3639 154.757 26.642 154.852 26.8944C154.95 27.1467 155.098 27.3476 155.296 27.4968C155.494 27.646 155.737 27.7207 156.024 27.7207Z" fill="white"/>
<path d="M151.295 28.3393C150.896 28.3393 150.543 28.2444 150.236 28.0544C149.932 27.8645 149.696 27.5986 149.528 27.2566C149.36 26.912 149.276 26.5131 149.276 26.06C149.276 25.6041 149.36 25.2039 149.528 24.8592C149.696 24.5146 149.932 24.2473 150.236 24.0574C150.543 23.8674 150.896 23.7725 151.295 23.7725C151.691 23.7725 152.041 23.8674 152.345 24.0574C152.649 24.2473 152.883 24.5146 153.049 24.8592C153.214 25.2039 153.297 25.6041 153.297 26.06C153.297 26.5131 153.214 26.912 153.049 27.2566C152.883 27.5986 152.649 27.8645 152.345 28.0544C152.041 28.2444 151.691 28.3393 151.295 28.3393ZM151.295 27.7207C151.579 27.7207 151.82 27.646 152.015 27.4968C152.213 27.3476 152.36 27.1467 152.455 26.8944C152.55 26.642 152.597 26.3639 152.597 26.06C152.597 25.7561 152.55 25.4779 152.455 25.2256C152.36 24.9732 152.213 24.771 152.015 24.6191C151.82 24.4671 151.579 24.3911 151.295 24.3911C151.007 24.3911 150.764 24.4671 150.566 24.6191C150.368 24.771 150.22 24.9732 150.122 25.2256C150.027 25.4779 149.978 25.7561 149.976 26.06C149.978 26.3639 150.027 26.642 150.122 26.8944C150.22 27.1467 150.368 27.3476 150.566 27.4968C150.764 27.646 151.007 27.7207 151.295 27.7207Z" fill="white"/>
<path d="M143.349 22.356L145.335 27.2078H145.409L147.395 22.356H148.274V28.2498H147.582V23.7968H147.525L145.694 28.2498H145.042L143.211 23.7968H143.162V28.2498H142.47V22.356H143.349Z" fill="white"/>
<path d="M136.348 28.2498H135.648V23.8294H136.324V24.5214H136.381C136.489 24.2853 136.651 24.1022 136.865 23.9719C137.082 23.8389 137.352 23.7725 137.675 23.7725C137.979 23.7725 138.242 23.8335 138.465 23.9556C138.687 24.0777 138.86 24.265 138.982 24.5173C139.104 24.767 139.165 25.075 139.165 25.4413V28.2498H138.465V25.4901C138.465 25.2649 138.426 25.0709 138.347 24.9081C138.268 24.7426 138.153 24.6164 138.001 24.5295C137.852 24.4427 137.672 24.3993 137.464 24.3993C137.246 24.3993 137.054 24.4454 136.886 24.5377C136.717 24.6299 136.586 24.767 136.491 24.9488C136.396 25.1306 136.348 25.3463 136.348 25.596V28.2498Z" fill="white"/>
<path d="M133.89 26.1984C133.732 26.2092 133.614 26.2174 133.536 26.2228C133.46 26.2282 133.344 26.2364 133.19 26.2472C133.032 26.2581 132.875 26.2689 132.717 26.2798C132.386 26.3015 132.13 26.3734 131.948 26.4955C131.769 26.6176 131.678 26.7953 131.675 27.0287C131.675 27.1807 131.716 27.3096 131.798 27.4154C131.879 27.5212 131.987 27.6013 132.123 27.6555C132.262 27.7071 132.422 27.7315 132.603 27.7288C132.856 27.7288 133.074 27.6786 133.259 27.5782C133.446 27.4778 133.588 27.3448 133.686 27.1793C133.784 27.0138 133.833 26.836 133.833 26.6461V25.2703C133.833 25.0831 133.796 24.923 133.723 24.79C133.65 24.6544 133.537 24.5526 133.385 24.4848C133.236 24.4169 133.051 24.383 132.831 24.383C132.563 24.383 132.343 24.4386 132.172 24.5499C132.001 24.6584 131.89 24.8009 131.838 24.9773H131.106C131.135 24.7412 131.228 24.5323 131.382 24.3504C131.54 24.1659 131.746 24.0235 132.001 23.9231C132.256 23.8227 132.544 23.7725 132.864 23.7725C133.119 23.7725 133.37 23.8105 133.617 23.8864C133.864 23.9624 134.077 24.1171 134.256 24.3504C134.435 24.5811 134.525 24.9094 134.525 25.3355V28.2498H133.833V27.6474H133.8C133.711 27.8319 133.555 27.9961 133.332 28.1399C133.112 28.281 132.829 28.3529 132.481 28.3556C132.199 28.3529 131.944 28.2986 131.716 28.1928C131.488 28.0843 131.308 27.9282 131.175 27.7247C131.042 27.5185 130.975 27.2756 130.975 26.9961C130.975 26.5403 131.131 26.2187 131.443 26.0315C131.758 25.8415 132.156 25.7289 132.636 25.6936C132.764 25.6828 132.91 25.6733 133.076 25.6652C133.241 25.6543 133.404 25.6448 133.564 25.6367C133.67 25.6339 133.776 25.6312 133.882 25.6285L133.89 26.1984Z" fill="white"/>
<path d="M129.51 24.9773C129.459 24.7873 129.358 24.6394 129.209 24.5336C129.062 24.4251 128.864 24.3694 128.615 24.3667C128.436 24.3667 128.276 24.3966 128.134 24.4563C127.993 24.516 127.882 24.5974 127.801 24.7005C127.719 24.8009 127.679 24.9121 127.679 25.0343C127.681 25.1808 127.744 25.3056 127.866 25.4087C127.988 25.5091 128.178 25.5905 128.436 25.6529L129.095 25.8158C129.489 25.908 129.783 26.0545 129.978 26.2554C130.174 26.4534 130.273 26.7058 130.275 27.0124C130.273 27.2702 130.204 27.4995 130.068 27.7003C129.935 27.8984 129.737 28.0544 129.474 28.1684C129.213 28.2824 128.902 28.3393 128.541 28.3393C128.213 28.3393 127.928 28.2919 127.687 28.1969C127.448 28.1019 127.257 27.9622 127.113 27.7776C126.969 27.5904 126.878 27.3625 126.84 27.0938H127.573C127.613 27.3082 127.712 27.4683 127.87 27.5741C128.027 27.68 128.246 27.7315 128.525 27.7288C128.734 27.7288 128.916 27.7017 129.071 27.6474C129.228 27.5931 129.347 27.5158 129.429 27.4154C129.51 27.3123 129.551 27.1915 129.551 27.0531C129.551 26.8957 129.493 26.7655 129.376 26.6624C129.259 26.5593 129.076 26.4779 128.826 26.4182L128.159 26.2635C127.776 26.1739 127.483 26.0274 127.28 25.8239C127.079 25.6204 126.978 25.3707 126.978 25.075C126.978 24.8253 127.048 24.6014 127.186 24.4034C127.324 24.2053 127.517 24.0506 127.764 23.9393C128.011 23.8281 128.295 23.7725 128.615 23.7725C128.913 23.7725 129.176 23.8227 129.404 23.9231C129.632 24.0235 129.813 24.1646 129.946 24.3464C130.081 24.5282 130.164 24.7385 130.194 24.9773H129.51Z" fill="white"/>
<path d="M125.293 26.1984C125.136 26.2092 125.018 26.2174 124.939 26.2228C124.863 26.2282 124.748 26.2364 124.593 26.2472C124.436 26.2581 124.278 26.2689 124.121 26.2798C123.79 26.3015 123.534 26.3734 123.352 26.4955C123.173 26.6176 123.082 26.7953 123.079 27.0287C123.079 27.1807 123.12 27.3096 123.201 27.4154C123.283 27.5212 123.391 27.6013 123.527 27.6555C123.665 27.7071 123.825 27.7315 124.007 27.7288C124.259 27.7288 124.478 27.6786 124.662 27.5782C124.85 27.4778 124.992 27.3448 125.09 27.1793C125.187 27.0138 125.236 26.836 125.236 26.6461V25.2703C125.236 25.0831 125.2 24.923 125.126 24.79C125.053 24.6544 124.94 24.5526 124.789 24.4848C124.639 24.4169 124.455 24.383 124.235 24.383C123.966 24.383 123.747 24.4386 123.576 24.5499C123.405 24.6584 123.293 24.8009 123.242 24.9773H122.509C122.539 24.7412 122.631 24.5323 122.786 24.3504C122.943 24.1659 123.15 24.0235 123.405 23.9231C123.66 23.8227 123.947 23.7725 124.268 23.7725C124.523 23.7725 124.774 23.8105 125.021 23.8864C125.267 23.9624 125.48 24.1171 125.66 24.3504C125.839 24.5811 125.928 24.9094 125.928 25.3355V28.2498H125.236V27.6474H125.204C125.114 27.8319 124.958 27.9961 124.736 28.1399C124.516 28.281 124.232 28.3529 123.885 28.3556C123.603 28.3529 123.348 28.2986 123.12 28.1928C122.892 28.0843 122.711 27.9282 122.578 27.7247C122.445 27.5185 122.379 27.2756 122.379 26.9961C122.379 26.5403 122.535 26.2187 122.847 26.0315C123.162 25.8415 123.559 25.7289 124.04 25.6936C124.167 25.6828 124.314 25.6733 124.479 25.6652C124.645 25.6543 124.808 25.6448 124.968 25.6367C125.073 25.6339 125.179 25.6312 125.285 25.6285L125.293 26.1984Z" fill="white"/>
<path d="M116.453 22.356L118.439 27.2078H118.512L120.499 22.356H121.378V28.2498H120.686V23.7968H120.629L118.797 28.2498H118.146L116.314 23.7968H116.265V28.2498H115.573V22.356H116.453Z" fill="white"/>
<path d="M109.427 29.9106C109.226 29.9052 109.096 29.8998 109.036 29.8944V29.2675C109.069 29.2702 109.183 29.2757 109.378 29.2838C109.498 29.2811 109.597 29.2675 109.675 29.2431C109.754 29.2214 109.831 29.1617 109.907 29.064C109.986 28.969 110.062 28.8198 110.135 28.6163L110.266 28.2825L108.629 23.8296H109.395L110.599 27.3382H110.648L111.853 23.8296H112.618L110.746 28.8849C110.616 29.2322 110.442 29.4887 110.225 29.6542C110.008 29.8224 109.742 29.9079 109.427 29.9106Z" fill="white"/>
<path d="M108.076 24.4154H105.772V23.8293H108.076V24.4154ZM107.148 22.771V26.9797C107.148 27.1561 107.174 27.2931 107.225 27.3908C107.277 27.4858 107.344 27.5509 107.429 27.5862C107.513 27.6214 107.612 27.6391 107.726 27.6391C107.775 27.6391 107.825 27.6377 107.876 27.635C107.931 27.6323 107.984 27.6309 108.035 27.6309L108.141 27.6228V28.2741C107.994 28.2958 107.832 28.3066 107.652 28.3066C107.446 28.3066 107.251 28.2632 107.066 28.1764C106.882 28.0895 106.731 27.9606 106.615 27.7897C106.498 27.616 106.44 27.4057 106.44 27.1588V22.771H107.148Z" fill="white"/>
<path d="M104.331 23.8296H105.031V28.25H104.331V23.8296ZM104.681 23.097C104.592 23.097 104.509 23.0753 104.433 23.0319C104.36 22.9884 104.301 22.9328 104.258 22.865C104.215 22.7944 104.193 22.7171 104.193 22.633C104.193 22.5488 104.215 22.4715 104.258 22.401C104.301 22.3277 104.36 22.2707 104.433 22.23C104.509 22.1893 104.592 22.1689 104.681 22.1689C104.768 22.1689 104.85 22.1893 104.926 22.23C105.002 22.2707 105.063 22.3277 105.109 22.401C105.155 22.4715 105.178 22.5488 105.178 22.633C105.178 22.7171 105.155 22.7944 105.109 22.865C105.063 22.9328 105.002 22.9884 104.926 23.0319C104.85 23.0753 104.768 23.097 104.681 23.097Z" fill="white"/>
<path d="M102.662 24.2119C102.608 23.9487 102.501 23.7234 102.341 23.5362C102.181 23.3463 101.985 23.2024 101.755 23.1048C101.527 23.0071 101.281 22.9582 101.018 22.9582C100.657 22.9582 100.333 23.0491 100.045 23.2309C99.7601 23.4127 99.5349 23.68 99.3694 24.0328C99.2038 24.3855 99.1211 24.8089 99.1211 25.3027C99.1211 25.7939 99.2038 26.2158 99.3694 26.5686C99.5349 26.9186 99.7601 27.1859 100.045 27.3704C100.333 27.5523 100.657 27.6445 101.018 27.6472C101.281 27.6445 101.527 27.5957 101.755 27.5007C101.985 27.403 102.179 27.2605 102.337 27.0733C102.497 26.8861 102.605 26.6622 102.662 26.4017H103.395C103.324 26.7952 103.178 27.1384 102.955 27.4315C102.733 27.7218 102.453 27.9444 102.117 28.099C101.783 28.2537 101.417 28.331 101.018 28.331C100.513 28.331 100.064 28.2076 99.6706 27.9606C99.2771 27.7137 98.9691 27.3623 98.7466 26.9064C98.5241 26.4478 98.4128 25.9133 98.4128 25.3027C98.4128 24.6922 98.5241 24.159 98.7466 23.7031C98.9691 23.2445 99.2771 22.8917 99.6706 22.6448C100.064 22.3979 100.513 22.2744 101.018 22.2744C101.417 22.2744 101.783 22.3504 102.117 22.5024C102.453 22.6543 102.733 22.8768 102.955 23.1699C103.178 23.4629 103.324 23.8103 103.395 24.2119H102.662Z" fill="white"/>
<path d="M94.6112 28.2498H93.9111V23.8294H94.5868V24.5214H94.6438C94.7523 24.2853 94.9138 24.1022 95.1282 23.9719C95.3452 23.8389 95.6152 23.7725 95.9381 23.7725C96.2421 23.7725 96.5053 23.8335 96.7278 23.9556C96.9503 24.0777 97.1226 24.265 97.2447 24.5173C97.3668 24.767 97.4279 25.075 97.4279 25.4413V28.2498H96.7278V25.4901C96.7278 25.2649 96.6884 25.0709 96.6097 24.9081C96.5311 24.7426 96.4157 24.6164 96.2638 24.5295C96.1145 24.4427 95.9354 24.3993 95.7265 24.3993C95.5094 24.3993 95.3167 24.4454 95.1485 24.5377C94.9803 24.6299 94.8487 24.767 94.7537 24.9488C94.6587 25.1306 94.6112 25.3463 94.6112 25.596V28.2498Z" fill="white"/>
<path d="M90.9886 28.3393C90.5897 28.3393 90.237 28.2444 89.9303 28.0544C89.6264 27.8645 89.3903 27.5986 89.2221 27.2566C89.0538 26.912 88.9697 26.5131 88.9697 26.06C88.9697 25.6041 89.0538 25.2039 89.2221 24.8592C89.3903 24.5146 89.6264 24.2473 89.9303 24.0574C90.237 23.8674 90.5897 23.7725 90.9886 23.7725C91.3848 23.7725 91.7348 23.8674 92.0387 24.0574C92.3427 24.2473 92.5774 24.5146 92.7429 24.8592C92.9084 25.2039 92.9912 25.6041 92.9912 26.06C92.9912 26.5131 92.9084 26.912 92.7429 27.2566C92.5774 27.5986 92.3427 27.8645 92.0387 28.0544C91.7348 28.2444 91.3848 28.3393 90.9886 28.3393ZM90.9886 27.7207C91.2735 27.7207 91.5137 27.646 91.709 27.4968C91.9071 27.3476 92.0537 27.1467 92.1486 26.8944C92.2436 26.642 92.2911 26.3639 92.2911 26.06C92.2911 25.7561 92.2436 25.4779 92.1486 25.2256C92.0537 24.9732 91.9071 24.771 91.709 24.6191C91.5137 24.4671 91.2735 24.3911 90.9886 24.3911C90.701 24.3911 90.4581 24.4671 90.26 24.6191C90.0619 24.771 89.914 24.9732 89.8164 25.2256C89.7214 25.4779 89.6725 25.7561 89.6698 26.06C89.6725 26.3639 89.7214 26.642 89.8164 26.8944C89.914 27.1467 90.0619 27.3476 90.26 27.4968C90.4581 27.646 90.701 27.7207 90.9886 27.7207Z" fill="white"/>
<path d="M82.498 23.8296H83.2388L84.1832 27.1998H84.2239L85.16 23.8296H85.909L86.8289 27.1835H86.8777L87.822 23.8296H88.5547L87.2115 28.2499H86.5195L85.5589 24.8797H85.4938L84.5413 28.2499H83.8412L82.498 23.8296Z" fill="white"/>
<path d="M79.8117 30C79.4562 30 79.1414 29.9498 78.8674 29.8494C78.596 29.749 78.3789 29.6011 78.2161 29.4058C78.056 29.2131 77.9638 28.9825 77.9393 28.7138H78.672C78.7181 28.9363 78.8402 29.1046 79.0383 29.2185C79.2364 29.3325 79.4942 29.3895 79.8117 29.3895C80.1997 29.3895 80.4996 29.3013 80.7112 29.1249C80.9256 28.9513 81.0328 28.6867 81.0328 28.3312V27.4357H80.9758L80.9595 27.4602C80.8835 27.5877 80.8021 27.7003 80.7153 27.798C80.6285 27.893 80.4982 27.9812 80.3245 28.0626C80.1536 28.144 79.9419 28.1847 79.6896 28.1847C79.3287 28.182 79.0058 28.0938 78.7208 27.9201C78.4386 27.7437 78.2161 27.49 78.0533 27.159C77.8905 26.8252 77.8091 26.4317 77.8091 25.9786C77.8091 25.5335 77.8891 25.1442 78.0492 24.8104C78.2093 24.4766 78.4318 24.2202 78.7168 24.0411C79.0017 23.862 79.3287 23.7725 79.6977 23.7725C79.9419 23.7725 80.1468 23.8105 80.3123 23.8864C80.4778 23.9624 80.604 24.0479 80.6909 24.1429C80.7804 24.2351 80.87 24.3477 80.9595 24.4807C80.9704 24.497 80.9812 24.5133 80.9921 24.5295H81.049V23.8294H81.7329V28.3719C81.7329 28.7382 81.6501 29.0422 81.4846 29.2837C81.319 29.5279 81.0911 29.7083 80.8008 29.825C80.5131 29.9417 80.1834 30 79.8117 30ZM79.7873 27.5579C80.0559 27.5579 80.2838 27.4954 80.4711 27.3706C80.661 27.2458 80.8048 27.0681 80.9025 26.8374C81.0002 26.604 81.049 26.3259 81.049 26.003C81.0463 25.6828 80.9961 25.4019 80.8984 25.1604C80.8035 24.9189 80.661 24.7317 80.4711 24.5987C80.2838 24.4658 80.0559 24.3993 79.7873 24.3993C79.5132 24.3993 79.2798 24.4685 79.0872 24.6069C78.8972 24.7453 78.7548 24.9366 78.6598 25.1808C78.5648 25.425 78.5173 25.6991 78.5173 26.003C78.5173 26.3123 78.5662 26.5837 78.6638 26.8171C78.7615 27.0504 78.904 27.2322 79.0912 27.3625C79.2812 27.4927 79.5132 27.5579 79.7873 27.5579Z" fill="white"/>
<path d="M74.0807 28.2498H73.3806V23.8294H74.0563V24.5214H74.1133C74.2218 24.2853 74.3833 24.1022 74.5976 23.9719C74.8147 23.8389 75.0847 23.7725 75.4076 23.7725C75.7115 23.7725 75.9748 23.8335 76.1973 23.9556C76.4198 24.0777 76.5921 24.265 76.7142 24.5173C76.8363 24.767 76.8974 25.075 76.8974 25.4413V28.2498H76.1973V25.4901C76.1973 25.2649 76.1579 25.0709 76.0792 24.9081C76.0005 24.7426 75.8852 24.6164 75.7333 24.5295C75.584 24.4427 75.4049 24.3993 75.196 24.3993C74.9789 24.3993 74.7862 24.4454 74.618 24.5377C74.4498 24.6299 74.3181 24.767 74.2232 24.9488C74.1282 25.1306 74.0807 25.3463 74.0807 25.596V28.2498Z" fill="white"/>
<path d="M71.6221 26.1984C71.4647 26.2092 71.3467 26.2174 71.268 26.2228C71.192 26.2282 71.0767 26.2364 70.922 26.2472C70.7646 26.2581 70.6072 26.2689 70.4499 26.2798C70.1188 26.3015 69.8624 26.3734 69.6806 26.4955C69.5015 26.6176 69.4106 26.7953 69.4079 27.0287C69.4079 27.1807 69.4486 27.3096 69.53 27.4154C69.6114 27.5212 69.7199 27.6013 69.8556 27.6555C69.994 27.7071 70.1541 27.7315 70.3359 27.7288C70.5882 27.7288 70.8067 27.6786 70.9912 27.5782C71.1784 27.4778 71.3209 27.3448 71.4186 27.1793C71.5163 27.0138 71.5651 26.836 71.5651 26.6461V25.2703C71.5651 25.0831 71.5285 24.923 71.4552 24.79C71.382 24.6544 71.2693 24.5526 71.1174 24.4848C70.9681 24.4169 70.7836 24.383 70.5638 24.383C70.2952 24.383 70.0754 24.4386 69.9044 24.5499C69.7335 24.6584 69.6222 24.8009 69.5707 24.9773H68.838C68.8679 24.7412 68.9601 24.5323 69.1148 24.3504C69.2722 24.1659 69.4784 24.0235 69.7335 23.9231C69.9886 23.8227 70.2762 23.7725 70.5964 23.7725C70.8515 23.7725 71.1025 23.8105 71.3494 23.8864C71.5963 23.9624 71.8093 24.1171 71.9884 24.3504C72.1675 24.5811 72.2571 24.9094 72.2571 25.3355V28.2498H71.5651V27.6474H71.5326C71.443 27.8319 71.287 27.9961 71.0645 28.1399C70.8447 28.281 70.5611 28.3529 70.2138 28.3556C69.9316 28.3529 69.6765 28.2986 69.4486 28.1928C69.2206 28.0843 69.0402 27.9282 68.9072 27.7247C68.7742 27.5185 68.7078 27.2756 68.7078 26.9961C68.7078 26.5403 68.8638 26.2187 69.1758 26.0315C69.4906 25.8415 69.8882 25.7289 70.3685 25.6936C70.496 25.6828 70.6425 25.6733 70.808 25.6652C70.9736 25.6543 71.1364 25.6448 71.2965 25.6367C71.4023 25.6339 71.5081 25.6312 71.614 25.6285L71.6221 26.1984Z" fill="white"/>
<path d="M64.9306 28.2498H64.2305V22.356H64.9306V24.5214H64.9875C65.0961 24.2826 65.2562 24.0981 65.4678 23.9678C65.6795 23.8376 65.9536 23.7724 66.29 23.7724C66.5967 23.7724 66.8626 23.8335 67.0878 23.9556C67.3158 24.0777 67.4908 24.2636 67.6129 24.5132C67.735 24.7629 67.7961 25.0722 67.7961 25.4413V28.2498H67.096V25.4901C67.096 25.2594 67.0553 25.0627 66.9739 24.8999C66.8925 24.7344 66.7758 24.6096 66.6238 24.5254C66.4719 24.4413 66.29 24.3993 66.0784 24.3993C65.8559 24.3993 65.6591 24.4454 65.4882 24.5376C65.3172 24.6299 65.1816 24.7669 65.0812 24.9487C64.9808 25.1306 64.9306 25.3463 64.9306 25.5959V28.2498Z" fill="white"/>
<path d="M62.5617 24.2119C62.5074 23.9487 62.4002 23.7234 62.2401 23.5362C62.08 23.3463 61.8846 23.2024 61.654 23.1048C61.426 23.0071 61.1805 22.9582 60.9173 22.9582C60.5564 22.9582 60.2321 23.0491 59.9445 23.2309C59.6595 23.4127 59.4343 23.68 59.2688 24.0328C59.1033 24.3855 59.0205 24.8089 59.0205 25.3027C59.0205 25.7939 59.1033 26.2158 59.2688 26.5686C59.4343 26.9186 59.6595 27.1859 59.9445 27.3704C60.2321 27.5523 60.5564 27.6445 60.9173 27.6472C61.1805 27.6445 61.426 27.5957 61.654 27.5007C61.8846 27.403 62.0787 27.2605 62.236 27.0733C62.3961 26.8861 62.5047 26.6622 62.5617 26.4017H63.2943C63.2238 26.7952 63.0772 27.1384 62.8547 27.4315C62.6322 27.7218 62.3527 27.9444 62.0162 28.099C61.6825 28.2537 61.3161 28.331 60.9173 28.331C60.4125 28.331 59.9634 28.2076 59.57 27.9606C59.1765 27.7137 58.8685 27.3623 58.646 26.9064C58.4235 26.4478 58.3123 25.9133 58.3123 25.3027C58.3123 24.6922 58.4235 24.159 58.646 23.7031C58.8685 23.2445 59.1765 22.8917 59.57 22.6448C59.9634 22.3979 60.4125 22.2744 60.9173 22.2744C61.3161 22.2744 61.6825 22.3504 62.0162 22.5024C62.3527 22.6543 62.6322 22.8768 62.8547 23.1699C63.0772 23.4629 63.2238 23.8103 63.2943 24.2119H62.5617Z" fill="white"/>
<g clip-path="url(#clip0_72_5498)">
<path d="M26.3668 7.41285L27.9081 5.45698C29.6189 3.2855 31.8795 1.57091 34.5049 0.698209C45.51 -2.95686 57.7378 8.22908 51.629 20.5957C46.7841 30.411 31.5199 30.6626 26.8703 20.7651C25.6166 21.761 25.0258 23.45 23.7671 24.5845C12.4435 34.7848 -5.46665 21.9099 1.60801 7.58226C6.39638 -2.12009 21.8661 -2.71045 26.3668 7.41285ZM43.311 5.88306L26.6134 12.4848L9.92087 5.88306C11.7859 11.1706 11.1385 17.0485 9.40709 22.3052L26.6185 16.1398L43.8299 22.3052C42.0985 17.0485 41.4511 11.1706 43.3161 5.88306H43.311Z" fill="white"/>
</g>
<defs>
<clipPath id="clip0_72_5498">
<rect width="53.2578" height="28.2498" fill="white"/>
</clipPath>
</defs>
</svg>
